/* XPM */
static char *enemy_4_resized[] = {
/* columns rows colors chars-per-pixel */
"50 50 137 2 ",
"   c None",
".  c #120D08",
"X  c #140F09",
"o  c #150F09",
"O  c #17100A",
"+  c #18110B",
"@  c #1D1209",
"#  c #1F170F",
"$  c #20150C",
"%  c #23180F",
"&  c #231911",
"*  c #241A11",
"=  c #261B11",
"-  c #261B12",
";  c #271C14",
":  c #2D1F13",
">  c #2E2015",
",  c #2F2217",
"<  c #332316",
"1  c #342214",
"2  c #372617",
"3  c #3B2717",
"4  c #352518",
"5  c #3A2819",
"6  c #3A291A",
"7  c #3E2B1A",
"8  c #3F2B1B",
"9  c #3E2B1C",
"0  c #3F3730",
"q  c #432D1A",
"w  c #432D1B",
"e  c #402C1C",
"r  c #422E1D",
"t  c #432E1D",
"y  c #442E1C",
"u  c #452E1C",
"i  c #442F1D",
"p  c #452F1D",
"a  c #452F1E",
"s  c #45301E",
"d  c #46301E",
"f  c #47301E",
"g  c #47311E",
"h  c #47311F",
"j  c #48321F",
"k  c #49321F",
"l  c #4B331F",
"z  c #413124",
"x  c #4A3320",
"c  c #4C3420",
"v  c #4C3421",
"b  c #4D3521",
"n  c #4A3524",
"m  c #4C3827",
"M  c #523721",
"N  c #523923",
"B  c #543924",
"V  c #543A24",
"C  c #553A24",
"Z  c #563B24",
"A  c #563B25",
"S  c #573C25",
"D  c #5A3D25",
"F  c #5B3D25",
"G  c #5C3F27",
"H  c #403831",
"J  c #413932",
"K  c #463D36",
"L  c #5F4027",
"P  c #57412F",
"I  c #5D4028",
"U  c #5C4029",
"Y  c #5E4028",
"T  c #5F4128",
"R  c #504034",
"E  c #664427",
"W  c #604229",
"Q  c #614229",
"!  c #62432A",
"~  c #63442A",
"^  c #65452A",
"/  c #64452B",
"(  c #65462B",
")  c #66462B",
"_  c #67462B",
"`  c #67462C",
"'  c #68482C",
"]  c #69482D",
"[  c #6C4A2D",
"{  c #6C4A2E",
"}  c #6D4B2F",
"|  c #6E4C2F",
" . c #6F4C2F",
".. c #724E30",
"X. c #734E30",
"o. c #724E31",
"O. c #67503F",
"+. c #755032",
"@. c #76563C",
"#. c #7B593C",
"$. c #755D4D",
"%. c #6A635D",
"&. c #766352",
"*. c #746457",
"=. c #786B5F",
"-. c #7F6D5D",
";. c #6E6761",
":. c #706862",
">. c #746B64",
",. c #80654E",
"<. c #806D5D",
"1. c #816E5F",
"2. c #81776F",
"3. c #9D8576",
"4. c #90877D",
"5. c #978B83",
"6. c #988882",
"7. c #AE9D8F",
"8. c #A49992",
"9. c #A59C95",
"0. c #B3A699",
"q. c #F2929C",
"w. c #F5939E",
"e. c #C6BCBB",
"r. c #EEB8BD",
"t. c #EFB8BE",
"y. c #CFC6C6",
"u. c #C6C8C3",
"i. c #E2C3C5",
"p. c #E6C4C7",
"a. c #E7D4D6",
"s. c #ECD9DB",
"d. c #E0E0E0",
"f. c #E0E1E0",
"g. c #EAECEC",
"h. c #ECEFEF",
"j. c #EEF7F7",
/* pixels */
"                                                                                                    ",
"                                                                                                    ",
"                                                                                                    ",
"                                                                                                    ",
"                                                                                                    ",
"                                                                                                    ",
"                                                                                                    ",
"                                                                                                    ",
"                                                                                                    ",
"                                                                                                    ",
"                                                                                                    ",
"                                                                                                    ",
"                          > 9                                                                       ",
"                          ) x c %                                                                   ",
"                        / Q g f :                                 . .                               ",
"                      * r x d d t '                             } N                                 ",
"                          d d d d S o.                        Q v g                                 ",
"                        W g d d d f ! +.       .X.#.,.P ^ { ] b f < o                               ",
"                        a d d d d d c ` ..  { Z _ 7.g.0.I d f d i 8                                 ",
"                        6 g d d d d d f Y | T y *.f.s.p.=.u d f 5 X                                 ",
"                                d d d d p A V w 8.h.r.w.u.q d     .                                 ",
"                                    d d d a p w 6.d.t.q.j.                                          ",
"                                        d s B ^ $.e.a.i.4.                                          ",
"                                          d x U [ 3.y.5.                                            ",
"                                          d n 2.m @.O.z 3                                           ",
"                                          h 2 ; ;.>.:.%.                                            ",
"                                          h 1 @ $ $ $                                               ",
"                                          l R 0 H J K                                               ",
"                                      & W L &.-.<.1.9.                                              ",
"                                      O C ( M F D D E   s                                           ",
"                                    C W G W c i p i A ~ j -                                         ",
"                                      V t 7 j       k c f +                                         ",
"                                        , = e         t 4                                           ",
"                                                        #                                           ",
"                                                                                                    ",
"                                                                                                    ",
"                                                                                                    ",
"                                                                                                    ",
"                                                                                                    ",
"                                                                                                    ",
"                                                                                                    ",
"                                                                                                    ",
"                                                                                                    ",
"                                                                                                    ",
"                                                                                                    ",
"                                                                                                    ",
"                                                                                                    ",
"                                                                                                    ",
"                                                                                                    ",
"                                                                                                    "
};
