/* XPM */
static char *enemy_3_resized[] = {
/* columns rows colors chars-per-pixel */
"50 50 121 2 ",
"   c None",
".  c #0F0B07",
"X  c #1A120B",
"o  c #1D1209",
"O  c #21170E",
"+  c #241A11",
"@  c #261B11",
"#  c #271B11",
"$  c #271C12",
"%  c #271C13",
"&  c #281C12",
"*  c #291D13",
"=  c #2B1E14",
"-  c #2F2115",
";  c #302215",
":  c #322215",
">  c #312316",
",  c #362415",
"<  c #332518",
"1  c #372618",
"2  c #392719",
"3  c #3C2A1A",
"4  c #3C2A1B",
"5  c #3E2B1B",
"6  c #38281C",
"7  c #393029",
"8  c #3A312A",
"9  c #3B312A",
"0  c #3D342D",
"q  c #3E352E",
"w  c #3F3730",
"e  c #412C1C",
"r  c #412D1C",
"t  c #422D1C",
"y  c #422E1D",
"u  c #432E1D",
"i  c #432F1D",
"p  c #452F1E",
"a  c #45301E",
"s  c #46301E",
"d  c #47301E",
"f  c #47311E",
"g  c #46311F",
"h  c #4A311C",
"j  c #48311F",
"k  c #49321F",
"l  c #4C331E",
"z  c #443121",
"x  c #473220",
"c  c #4A3320",
"v  c #4B3420",
"b  c #4B3422",
"n  c #4C3420",
"m  c #4C3421",
"M  c #4E3420",
"N  c #4F3520",
"B  c #4E3D2F",
"V  c #503620",
"C  c #503621",
"Z  c #503622",
"A  c #503722",
"S  c #513722",
"D  c #513823",
"F  c #523823",
"G  c #543A24",
"H  c #553B24",
"J  c #563B25",
"K  c #573C26",
"L  c #583C25",
"P  c #5A3D25",
"I  c #593D26",
"U  c #5A3E26",
"Y  c #5B3F27",
"T  c #5C3F27",
"R  c #413831",
"E  c #5F4127",
"W  c #5D4028",
"Q  c #5E4128",
"!  c #524032",
"~  c #604229",
"^  c #624229",
"/  c #62432A",
"(  c #63442A",
")  c #65452A",
"_  c #67472C",
"`  c #6A492D",
"'  c #69492F",
"]  c #6D4B2E",
"[  c #6D4B2F",
"{  c #6F4D2F",
"}  c #674E3A",
"|  c #704D30",
" . c #734F30",
".. c #734F31",
"X. c #584F47",
"o. c #6E5642",
"O. c #605248",
"+. c #66574A",
"@. c #755C48",
"#. c #75604F",
"$. c #776352",
"%. c #7A6451",
"&. c #7B6552",
"*. c #7B6553",
"=. c #876B54",
"-. c #8A766A",
";. c #9D928C",
":. c #A69185",
">. c #AFA7A1",
",. c #B3A5A0",
"<. c #B2A7A2",
"1. c #F48793",
"2. c #F19FA8",
"3. c #D7CFD0",
"4. c #DAD5D1",
"5. c #DED9D7",
"6. c #ECC4C8",
"7. c #ECDCDE",
"8. c #ECDFE0",
"9. c #E9E5E5",
"0. c #ECEBEB",
/* pixels */
"                                                                                                    ",
"                                                                                                    ",
"                                                                                                    ",
"                                                                                                    ",
"                                                                                                    ",
"                                                                                                    ",
"                                                                                                    ",
"                                                                                                    ",
"                                                                                                    ",
"                                                                                                    ",
"                                                                                                    ",
"                                                                                                    ",
"                                                                                                    ",
"                                                              .                                     ",
"                                                              5                                     ",
"                            -                               i 1 =                                   ",
"                            O (       +                   ] v e X                                   ",
"                              H {   < 2                   / c I                                     ",
"                              v G Q @ T                 L k f 5 %                                   ",
"                            U m a A u J |             Y j a d :                                     ",
"                          > r s s k n d W         h l a s s                                         ",
"                          # v d s s a a c _ ..[  .=.#.m                                             ",
"                            x d s s s s p I ` C @.4.5.                                              ",
"                            * p     s s p U ~ g >.0.2.8.                                            ",
"                                      s a S n x <.9.1.7.                                            ",
"                                        s p Z E -.3.6.,.                                            ",
"                                          s b } ' :.;.!                                             ",
"                                          s z X.+.$.O.6                                             ",
"                                          c , o 9 8 R                                               ",
"                                        4 ) B w 0 q 7                                               ",
"                                        3 ^ o.&.%.*.  N                                             ",
"                                          F C M N V P D $                                           ",
"                                      U K ; t a     f y                                             ",
"                                                      &                                             ",
"                                                                                                    ",
"                                                                                                    ",
"                                                                                                    ",
"                                                                                                    ",
"                                                                                                    ",
"                                                                                                    ",
"                                                                                                    ",
"                                                                                                    ",
"                                                                                                    ",
"                                                                                                    ",
"                                                                                                    ",
"                                                                                                    ",
"                                                                                                    ",
"                                                                                                    ",
"                                                                                                    ",
"                                                                                                    "
};
