/* XPM */
static char *enemy_2_resized[] = {
/* columns rows colors chars-per-pixel */
"50 50 138 2 ",
"   c None",
".  c #110D08",
"X  c #120D08",
"o  c #140F09",
"O  c #17110B",
"+  c #18110B",
"@  c #1D1208",
"#  c #1E160E",
"$  c #21170F",
"%  c #221910",
"&  c #261A10",
"*  c #261B11",
"=  c #251A12",
"-  c #291D12",
";  c #2A1D12",
":  c #2A1D13",
">  c #2B1F15",
",  c #291F17",
"<  c #2E2014",
"1  c #2E2217",
"2  c #2B2119",
"3  c #322316",
"4  c #322317",
"5  c #332417",
"6  c #352517",
"7  c #312318",
"8  c #342518",
"9  c #392819",
"0  c #3A2818",
"q  c #3A2919",
"w  c #3C2A1B",
"e  c #3E2B1B",
"r  c #3F2C1B",
"t  c #3E2C1C",
"y  c #332921",
"u  c #352C24",
"i  c #362D25",
"p  c #422C1A",
"a  c #432D1B",
"s  c #412D1C",
"d  c #432E1D",
"f  c #442E1D",
"g  c #442F1D",
"h  c #452F1D",
"j  c #452F1E",
"k  c #45301E",
"l  c #46301E",
"z  c #47301E",
"x  c #47311E",
"c  c #47311F",
"v  c #48311F",
"b  c #49321E",
"n  c #49321F",
"m  c #422F20",
"M  c #4A3320",
"N  c #4B3320",
"B  c #4C3421",
"V  c #4D3521",
"C  c #4E3521",
"Z  c #4E3622",
"A  c #4F3622",
"S  c #48372A",
"D  c #513823",
"F  c #523823",
"G  c #523923",
"H  c #543922",
"J  c #553922",
"K  c #533924",
"L  c #543924",
"P  c #543A24",
"I  c #563B25",
"U  c #573D27",
"Y  c #583D26",
"T  c #593D26",
"R  c #5A3E27",
"E  c #5C3F27",
"W  c #443A32",
"Q  c #5D4028",
"!  c #5E4028",
"~  c #5F4128",
"^  c #5F4937",
"/  c #52473E",
"(  c #624227",
")  c #604229",
"_  c #614329",
"`  c #63442A",
"'  c #64442A",
"]  c #64442B",
"[  c #64452B",
"{  c #65452B",
"}  c #67462B",
"|  c #65462C",
" . c #66462C",
".. c #67472C",
"X. c #6A482B",
"o. c #68482D",
"O. c #69482D",
"+. c #6A492D",
"@. c #6B4A2E",
"#. c #6D4B2F",
"$. c #6F4C2E",
"%. c #6B4C32",
"&. c #704D30",
"*. c #724E30",
"=. c #734F31",
"-. c #745031",
";. c #7F5F47",
":. c #745F4E",
">. c #675E56",
",. c #70645A",
"<. c #746558",
"1. c #7C6D60",
"2. c #7C7066",
"3. c #7D7167",
"4. c #7E7369",
"5. c #806A57",
"6. c #836F64",
"7. c #837064",
"8. c #987E69",
"9. c #95877F",
"0. c #998E85",
"q. c #9B9189",
"w. c #AE9C94",
"e. c #AAA19B",
"r. c #C3B9B1",
"t. c #F0A7AF",
"y. c #EFAFB6",
"u. c #F0ACB3",
"i. c #E4B5B9",
"p. c #F0B2B9",
"a. c #EEBDC2",
"s. c #D0CBC7",
"d. c #D2CDCD",
"f. c #DED6D3",
"g. c #DED9DA",
"h. c #E6E9E9",
"j. c #EDEAEB",
"k. c #EAEFEE",
/* pixels */
"                                                                                                    ",
"                                                                                                    ",
"                                                                                                    ",
"                                                                                                    ",
"                                                                                                    ",
"                                                                                                    ",
"                                                                                                    ",
"                                                                                                    ",
"                                                                                                    ",
"                                                                                                    ",
"                                                                +                                   ",
"                                                              V 3                                   ",
"                          5         1                         K e 4                                 ",
"                        o - O.      #                       *.F h ; X                               ",
"                            I #.    <                       ) n n                                   ",
"                            k V +.M & `                 @...B V R                                   ",
"                            N k n C s !               ..G k l l 8                                   ",
"                          T B k k A B n {           D V j l l x $ #                                 ",
"                        9 g l l l k k j K &.  -.-.} J f l                                           ",
"                        : g l l l l l l l ~ =.' $.8.r.5.                                            ",
"                      O   Q Z k l l l l j T O.b ^ s.j.f.                                            ",
"                          7 s z     l l j T [ a 0.k.y.p.                                            ",
"                          % 6         l k L Z p 9.h.t.u.                                            ",
"                                        l l N H 7.d.a.i.                                            ",
"                                          k V ( %.w.g.e.                                            ",
"                                          l c <.U ;.6.S                                             ",
"                                          z r W >.1.,./                                             ",
"                                          n 0 @ y u i                                               ",
"                                      > t _ m 2 , , ,                                               ",
"                                      . h X.:.4.3.2.q.                                              ",
"                                          Y R |  .{ o.] w                                           ",
"                                          l B h j g C P q #                                         ",
"                                          * e z l   k d                                             ",
"                                              z l       =                                           ",
"                                              K                                                     ",
"                                            ` n                                                     ",
"                                        @.E v                                                       ",
"                                          z                                                         ",
"                                                                                                    ",
"                                                                                                    ",
"                                                                                                    ",
"                                                                                                    ",
"                                                                                                    ",
"                                                                                                    ",
"                                                                                                    ",
"                                                                                                    ",
"                                                                                                    ",
"                                                                                                    ",
"                                                                                                    ",
"                                                                                                    "
};
