/* XPM */
static char *enemy_6_resized[] = {
/* columns rows colors chars-per-pixel */
"50 50 173 2 ",
"   c None",
".  c #100C07",
"X  c #190E04",
"o  c #190E05",
"O  c #1A0E05",
"+  c #110C08",
"@  c #120D08",
"#  c #1D1209",
"$  c #1F1309",
"%  c #1A120C",
"&  c #1B130D",
"*  c #1E150E",
"=  c #21150B",
"-  c #20170F",
";  c #22170F",
":  c #21180F",
">  c #221810",
",  c #251A10",
"<  c #261B11",
"1  c #271C13",
"2  c #291D13",
"3  c #2A1E13",
"4  c #2A1E14",
"5  c #2B1F15",
"6  c #2C2015",
"7  c #2F2014",
"8  c #2F2114",
"9  c #2C2016",
"0  c #2D2116",
"q  c #2F2217",
"w  c #322011",
"e  c #302115",
"r  c #3B2716",
"t  c #342518",
"y  c #342519",
"u  c #38281A",
"i  c #3E2A1A",
"p  c #3E2C1C",
"a  c #382F28",
"s  c #3E352E",
"d  c #422C1A",
"f  c #432C1A",
"g  c #432E1C",
"h  c #432E1D",
"j  c #412E1E",
"k  c #432F1F",
"l  c #442E1C",
"z  c #442F1D",
"x  c #452F1D",
"c  c #452F1E",
"v  c #45301E",
"b  c #46301E",
"n  c #47301E",
"m  c #47311E",
"M  c #46311F",
"N  c #47311F",
"B  c #4A301A",
"V  c #48321F",
"C  c #4A3320",
"Z  c #493423",
"A  c #4C3420",
"S  c #4D3521",
"D  c #4E3521",
"F  c #4E3621",
"G  c #4E3622",
"H  c #4F3622",
"J  c #4F3722",
"K  c #4F3826",
"L  c #463528",
"P  c #483A2E",
"I  c #503722",
"U  c #513722",
"Y  c #533822",
"T  c #543923",
"R  c #543A24",
"E  c #553A24",
"W  c #573C25",
"Q  c #583C26",
"!  c #593D26",
"~  c #5A3E26",
"^  c #5C3F27",
"/  c #513C2B",
"(  c #543F2D",
")  c #453D36",
"_  c #5E4128",
"`  c #5F4229",
"'  c #59422E",
"]  c #51473E",
"[  c #5F4C3D",
"{  c #614127",
"}  c #604229",
"|  c #614229",
" . c #614329",
".. c #634329",
"X. c #65452B",
"o. c #67472B",
"O. c #67472C",
"+. c #68462B",
"@. c #69472B",
"#. c #69472C",
"$. c #6A482C",
"%. c #6C492D",
"&. c #6C4A2E",
"*. c #6E4B2F",
"=. c #6E4C2F",
"-. c #6F4C2F",
";. c #6F4D2F",
":. c #704D30",
">. c #714D30",
",. c #714E30",
"<. c #724E31",
"1. c #724F31",
"2. c #734F31",
"3. c #744F31",
"4. c #6A523F",
"5. c #745032",
"6. c #7B5A3E",
"7. c #4E4640",
"8. c #4F4640",
"9. c #534A43",
"0. c #524A44",
"q. c #574F49",
"w. c #6A5747",
"e. c #625448",
"r. c #7D5D41",
"t. c #605953",
"y. c #625B55",
"u. c #6B5E52",
"i. c #6A6057",
"p. c #67615C",
"a. c #7B685C",
"s. c #7A6B5F",
"d. c #816248",
"f. c #86684F",
"g. c #8B715F",
"h. c #8C705D",
"j. c #817368",
"k. c #897768",
"l. c #84786D",
"z. c #A48F7E",
"x. c #978780",
"c. c #9A8D82",
"v. c #9A8B84",
"b. c #9E9186",
"n. c #9C9189",
"m. c #A0978F",
"M. c #B8ACAA",
"N. c #F38995",
"B. c #F38A96",
"V. c #F396A0",
"C. c #F297A0",
"Z. c #F297A1",
"A. c #C1BBB5",
"S. c #F1A1AA",
"D. c #CDC1C0",
"F. c #D7CECE",
"G. c #DAD5D5",
"H. c #DBD7D4",
"J. c #DBD6D7",
"K. c #DADEDB",
"L. c #ECD0D3",
"P. c #EDD3D6",
"I. c #E3DEDD",
"U. c #DEE1DD",
"Y. c #E8E6E7",
"T. c #E8E7E7",
"R. c #EAE6E7",
"E. c #E7EDED",
"W. c #E9E9E9",
"Q. c #EBEBEB",
"!. c #E8EFEE",
"~. c #E9EFEE",
"^. c #E9F0EF",
/* pixels */
"                                                                                                    ",
"                                                                                                    ",
"                                                                                                    ",
"                                                                                                    ",
"                                                                                                    ",
"                                                                                                    ",
"                                                                                                    ",
"                                                                                                    ",
"                                                                                                    ",
"                                                                                                    ",
"                                                                                                    ",
"                                                                                                    ",
"                                                                                                    ",
"                    2 y                                                                             ",
"                    H b R h @                                                                       ",
"                  2.=.A b n ;                 <.:.2.5.r.f.                                          ",
"                k ,.E v b n <               3.O.! >.d.H.T.z.                                        ",
"            0 * h C N b b v ` 1.            -.S m K A.Q.R.I.                                        ",
"                  b b b b b A *.2.1.1.1.1.1.-.C d n.W.~.C.S.!.        1.3.e .                       ",
"                  ~ c b b b b S D D D D D D S n f v.Y.^.B.Z.U.6.2.3.*.J F z ^                       ",
"                  A v b b b b v v v v v v v v c d x.F.E.N.V.K.' I U H b v b j                       ",
"                u v b b b b b b b b b b b b V X.o.4.M.G.L.P.l.M c c v b b h >                       ",
"                :       b b b b b b b b b b N Y { %.h.D.J.m./ x b   b b n ^ 3 &                     ",
"                                          b l [ j.B :.g.a.L r           7 p                         ",
"                                          b g P q.i.w.k.e.] w                                       ",
"                                          b h = X y.) p.0.t.                                        ",
"                                          c g $ # o O o O                                           ",
"                                          H Z 9.s s 7.a 8.                                          ",
"                                    1 4 2. .( b.s.s.c.u.                                            ",
"                                    . , O.-.T ..@.#.+.$.                                            ",
"                                    +   x } R n C v c J &.&.J 6                                     ",
"                                          !     | c   c Q W ^ - 5                                   ",
"                                          8 C ;._       n n n                                       ",
"                                        q - i O.V         v t                                       ",
"                                              O.n           % 9                                     ",
"                                            -.G b                                                   ",
"                                            G                                                       ",
"                                            v                                                       ",
"                                                                                                    ",
"                                                                                                    ",
"                                                                                                    ",
"                                                                                                    ",
"                                                                                                    ",
"                                                                                                    ",
"                                                                                                    ",
"                                                                                                    ",
"                                                                                                    ",
"                                                                                                    ",
"                                                                                                    ",
"                                                                                                    "
};
