/* XPM */
static char *enemy_resized[] = {
/* columns rows colors chars-per-pixel */
"50 50 179 2 ",
"   c None",
".  c #0F0B07",
"X  c #110C08",
"o  c #110D08",
"O  c #120D08",
"+  c #130D08",
"@  c #130E09",
"#  c #16100A",
"$  c #1E130A",
"%  c #1F140B",
"&  c #1A120C",
"*  c #1A130C",
"=  c #1B140D",
"-  c #1C140D",
";  c #1E150E",
":  c #1F160F",
">  c #21170E",
",  c #20170F",
"<  c #22180F",
"1  c #221910",
"2  c #231911",
"3  c #241A11",
"4  c #251B12",
"5  c #261B12",
"6  c #261C13",
"7  c #271C13",
"8  c #281C12",
"9  c #291D12",
"0  c #281D13",
"q  c #2D1F13",
"w  c #291D14",
"e  c #2A1E14",
"r  c #291F16",
"t  c #2E2116",
"y  c #2F241B",
"u  c #2D241C",
"i  c #2F251D",
"p  c #302115",
"a  c #312115",
"s  c #302317",
"d  c #332316",
"f  c #332417",
"g  c #352517",
"h  c #362517",
"j  c #312318",
"k  c #322418",
"l  c #362618",
"z  c #30261E",
"x  c #382618",
"c  c #3B291B",
"v  c #3C2919",
"b  c #3D2A19",
"n  c #342B24",
"m  c #362C25",
"M  c #372E27",
"N  c #382F27",
"B  c #3B3128",
"V  c #422C19",
"C  c #402C1C",
"Z  c #422D1C",
"A  c #422E1D",
"S  c #432E1D",
"D  c #442E1D",
"F  c #442F1D",
"G  c #452F1D",
"H  c #452F1E",
"J  c #45301E",
"K  c #46301E",
"L  c #47301E",
"P  c #47311E",
"I  c #46311F",
"U  c #47311F",
"Y  c #48311E",
"T  c #48311F",
"R  c #48321F",
"E  c #49321F",
"W  c #4A321E",
"Q  c #493321",
"!  c #4A3320",
"~  c #493322",
"^  c #4B3420",
"/  c #4A3523",
"(  c #4C3420",
")  c #4C3421",
"_  c #4D3521",
"`  c #4E3520",
"'  c #4E3521",
"]  c #4D3522",
"[  c #4F3622",
"{  c #483526",
"}  c #513722",
"|  c #513723",
" . c #513823",
".. c #533924",
"X. c #543A24",
"o. c #563B25",
"O. c #573C25",
"+. c #583C25",
"@. c #583C26",
"#. c #583D26",
"$. c #593D26",
"%. c #5A3D26",
"&. c #5C3F27",
"*. c #5D4028",
"=. c #5E4028",
"-. c #5F4129",
";. c #5C4A3C",
":. c #614228",
">. c #614329",
",. c #624329",
"<. c #634329",
"1. c #62442A",
"2. c #63442A",
"3. c #63442B",
"4. c #65452B",
"5. c #67472C",
"6. c #68472C",
"7. c #69482D",
"8. c #6A482C",
"9. c #6B482C",
"0. c #6A492D",
"q. c #6B4A2E",
"w. c #6D4B2E",
"e. c #6E4B2F",
"r. c #6E4C2F",
"t. c #6F4C2F",
"y. c #6F4D2F",
"u. c #704D30",
"i. c #714E30",
"p. c #724E30",
"a. c #734E30",
"s. c #734F31",
"d. c #755032",
"f. c #765132",
"g. c #77553A",
"h. c #79573A",
"j. c #6D5846",
"k. c #6D5949",
"l. c #6B5C4F",
"z. c #725947",
"x. c #675C52",
"c. c #6B6057",
"v. c #796A5E",
"b. c #7E6B5F",
"n. c #746B63",
"m. c #7E7065",
"M. c #896C54",
"N. c #8D7764",
"B. c #827569",
"V. c #84766A",
"C. c #86796D",
"Z. c #86796F",
"A. c #F8596A",
"S. c #8D8075",
"D. c #8A837E",
"F. c #908277",
"G. c #9D8576",
"H. c #918A85",
"J. c #AD9B8C",
"K. c #B9ACA9",
"L. c #EEB7BD",
"P. c #C8C2BF",
"I. c #F1BAC0",
"U. c #CBC0C0",
"Y. c #CCC7C5",
"T. c #D3C6C5",
"R. c #D0C5C6",
"E. c #DFDBDB",
"W. c #ECD0D3",
"Q. c #EDD1D4",
"!. c #E0DDDD",
"~. c #E3E5E3",
"^. c #E7E7E7",
"/. c #EDE2E3",
"(. c #E9E9E9",
"). c #E9EBEA",
"_. c #EAEAEA",
"`. c #EBEBEB",
"'. c #EDF0F0",
/* pixels */
"                                                                                                    ",
"                                                                                                    ",
"                                                                                                    ",
"                                                                                                    ",
"                                                                                                    ",
"                                                                                                    ",
"                                                                                                    ",
"                                                                                                    ",
"                                                                                                    ",
"                                                                                                    ",
"                                                                                                    ",
"                                                                                                    ",
"                                                                                                    ",
"                                                                                                    ",
"                                                                              0 >                   ",
"                        :             j                                     *.x X.                  ",
"                      6 l 5.d.      0 -                                   1.! P C f                 ",
"                      # d O.t.s.    4 d                                 5.( J T > #                 ",
"                      X   K _ *.s.6.& p 6.                        i.p.w.' J =.    O                 ",
"                          K J T _ -.9 Z 1.i.                  t.5.) ) ^ K K R k                     ",
"                          E K K K ( &.K T [ r.              W Y T K K K K K S ; e                   ",
"                        e.| H K K K P K K J ..u.    y.u.a.h.M.j.] K K K       + @                   ",
"                        [ J K K K K K K K K H #.i.i.@.%.7.J._.~.N.                                  ",
"                      2 g K K K K K K K K K K K 0.0.K I Z.^.(.L./.                                  ",
"                    , < R +.E K K K K K K K K K $.$.K / P.`.(.A.W.).                                ",
"                    X     Q T             K K K G G G ~ K.E._.A.Q.'.                                ",
"                        s 1                 K K J _ 2.3.b.U.!.I.T.B.                                ",
"                        *                     K K E ..6.q.G.R.Y.v.                                  ",
"                        o                     K K V m.x.` g.z.;.a                                   ",
"                                              K L b y z H.c.n.D.B                                   ",
"                                                R v $ % r 3 5 r                                     ",
"                                          w t f.O.{ m M u N n i                                     ",
"                                          . h 6.8.k.C.S.l.F.V.                                      ",
"                                              L 4.} ,.,.<.:.,.9.2.A 7                               ",
"                                              q  .E G G G D F o.[ ! =                               ",
"                                              4 8 D K K K     H S c                                 ",
"                                                    K K K       d 1                                 ",
"                                                      K                                             ",
"                                                    &.                                              ",
"                                                    E                                               ",
"                                                  >.L                                               ",
"                                                  U                                                 ",
"                                                                                                    ",
"                                                                                                    ",
"                                                                                                    ",
"                                                                                                    ",
"                                                                                                    ",
"                                                                                                    ",
"                                                                                                    ",
"                                                                                                    "
};
