/* XPM */
static char *enemy_5_resized[] = {
/* columns rows colors chars-per-pixel */
"50 50 160 2 ",
"   c None",
".  c #110C07",
"X  c #120D08",
"o  c #16100A",
"O  c #19120B",
"+  c #1B130C",
"@  c #1C140D",
"#  c #1E150D",
"$  c #21160D",
"%  c #23170D",
"&  c #21180F",
"*  c #25190F",
"=  c #221810",
"-  c #241910",
";  c #241911",
":  c #241A11",
">  c #251A11",
",  c #261A10",
"<  c #261B11",
"1  c #271B11",
"2  c #251B12",
"3  c #281D13",
"4  c #291D13",
"5  c #2C1E13",
"6  c #2F2014",
"7  c #2D2116",
"8  c #312215",
"9  c #312317",
"0  c #332316",
"q  c #352519",
"w  c #392718",
"e  c #3A2718",
"r  c #39281A",
"t  c #3C291A",
"y  c #3F2C1C",
"u  c #332A21",
"i  c #3C2D20",
"p  c #402C1B",
"a  c #422C1A",
"s  c #442D1B",
"d  c #422D1C",
"f  c #432E1D",
"g  c #442E1D",
"h  c #442F1D",
"j  c #452F1D",
"k  c #452F1E",
"l  c #45301E",
"z  c #46301E",
"x  c #47301E",
"c  c #47311E",
"v  c #47311F",
"b  c #48311E",
"n  c #49321F",
"m  c #473120",
"M  c #483220",
"N  c #483321",
"B  c #4A3320",
"V  c #4B3320",
"C  c #4B3420",
"Z  c #4C3420",
"A  c #4D3420",
"S  c #4C3421",
"D  c #4D3521",
"F  c #4E3621",
"G  c #4F3621",
"H  c #4F3622",
"J  c #4F3722",
"K  c #4F3A29",
"L  c #4F3A2A",
"P  c #513823",
"I  c #523923",
"U  c #563A23",
"Y  c #523924",
"T  c #553A24",
"R  c #563B25",
"E  c #573C25",
"W  c #593D26",
"Q  c #5C3F27",
"!  c #543D2A",
"~  c #563E2B",
"^  c #523D2D",
"/  c #543E2D",
"(  c #593E28",
")  c #5C3F28",
"_  c #5F4128",
"`  c #5F422A",
"'  c #594636",
"]  c #604229",
"[  c #614229",
"{  c #62432A",
"}  c #63442A",
"|  c #64452B",
" . c #66462C",
".. c #67462C",
"X. c #67472C",
"o. c #68472C",
"O. c #6B482B",
"+. c #68482D",
"@. c #6A482C",
"#. c #694A2F",
"$. c #6C492C",
"%. c #6C4A2E",
"&. c #6D4B2E",
"*. c #6D4B2F",
"=. c #6E4B2F",
"-. c #6E4C2F",
";. c #734E2F",
":. c #654932",
">. c #614F3F",
",. c #714E30",
"<. c #724E30",
"1. c #745031",
"2. c #745338",
"3. c #73543A",
"4. c #745439",
"5. c #75553B",
"6. c #76563B",
"7. c #72553C",
"8. c #735C4B",
"9. c #655D56",
"0. c #78675C",
"q. c #76685D",
"w. c #706963",
"e. c #736B65",
"r. c #756E68",
"t. c #756E69",
"y. c #8D715A",
"u. c #807974",
"i. c #827B76",
"p. c #86817C",
"a. c #88817C",
"s. c #9F8779",
"d. c #988E86",
"f. c #AD9B8C",
"g. c #AD9E9A",
"h. c #A8A5A1",
"j. c #B0ADA6",
"k. c #BCAFAD",
"l. c #F58B97",
"z. c #F68C98",
"x. c #C1B7AD",
"c. c #C6B9B7",
"v. c #C4BAB8",
"b. c #F3A2AB",
"n. c #EFADB4",
"m. c #F0AEB5",
"M. c #CEC5BE",
"N. c #EEBBC1",
"B. c #C7C8C4",
"V. c #CCCBC5",
"C. c #D4D2D0",
"Z. c #D5D2D0",
"A. c #DAD7D7",
"S. c #EFCDD1",
"D. c #EBD6D8",
"F. c #E2DFE0",
"G. c #E7EAEA",
"H. c #EBEDEE",
"J. c #EAEFEE",
"K. c #EFF3F5",
/* pixels */
"                                                                                                    ",
"                                                                                                    ",
"                                                                                                    ",
"                                                                                                    ",
"                                                                                                    ",
"                                                                                                    ",
"                                                                                                    ",
"                                                                                                    ",
"                                                                                                    ",
"                          @                                                                         ",
"                          < q                                                                       ",
"                          *.B J t                                                                   ",
"                        ` -.H D p o                                                                 ",
"                      4 Y E k l g +                                   5 #                           ",
"                      , k k z z k h             &.*.;.y.f.          ] n 5                           ",
"                        F l z z x | 1.        ,.W U 7.M.K.x.      +.D l 6                           ",
"                        P k z z l C %.        =.n m d.H.D.S.      R k x 1                           ",
"                      y l z z z z k R X. . ...} b ^ Z.J.n.l.V.#.[ x x p                             ",
"                      9 x z z z z z l k k k k k j L v.G.m.z.B.N k z v 8 .                           ",
"                            z z z z z z z z z v H ~ g.A.N.b.j.M z z                                 ",
"                              z z z z z z z z B o.O.8.c.F.C.>.s                                     ",
"                                  z z z z   z j K :.$.s.k.0.                                        ",
"                                            z a q.9.! 5./ i e                                       ",
"                                            z d * u p.u.w.t.                                        ",
"                                              d % $ 2 > -                                           ",
"                                              f 3 > ; : 2                                           ",
"                                        7   _ ' a.i.e.r.h.                                          ",
"                                        o W <.( 3.6.2.4.                                            ",
"                                        X B Q T V A A G @.  B                                       ",
"                                            W %.Q l l k R ] I :                                     ",
"                                            0 S Z z     n V C O                                     ",
"                                          7 = w x z       k r                                       ",
"                                            ) C             &                                       ",
"                                          { _                                                       ",
"                                                                                                    ",
"                                                                                                    ",
"                                                                                                    ",
"                                                                                                    ",
"                                                                                                    ",
"                                                                                                    ",
"                                                                                                    ",
"                                                                                                    ",
"                                                                                                    ",
"                                                                                                    ",
"                                                                                                    ",
"                                                                                                    ",
"                                                                                                    ",
"                                                                                                    ",
"                                                                                                    ",
"                                                                                                    "
};
