/* XPM */
static char *Walk_3_resized[] = {
/* columns rows colors chars-per-pixel */
"50 50 186 2 ",
"   c None",
".  c #060304",
"X  c #0A0507",
"o  c #0D0509",
"O  c #0C080A",
"+  c #14060A",
"@  c #160A0E",
"#  c #19090E",
"$  c #1D060C",
"%  c #160B11",
"&  c #1C0D12",
"*  c #1D1012",
"=  c #25070F",
"-  c #240D15",
";  c #2B0B14",
":  c #280F18",
">  c #330D16",
",  c #330E19",
"<  c #3B0E1A",
"1  c #231216",
"2  c #241814",
"3  c #251219",
"4  c #2C131C",
"5  c #2C1A1B",
"6  c #2D1E16",
"7  c #32131E",
"8  c #3C111D",
"9  c #321B1D",
"0  c #3C1C1F",
"q  c #2E231D",
"w  c #3A251C",
"e  c #312017",
"r  c #2B1F24",
"t  c #2F1720",
"y  c #331421",
"u  c #3B1725",
"i  c #331C22",
"p  c #3B1F23",
"a  c #2D2A2E",
"s  c #3C2223",
"d  c #37242C",
"f  c #3D2931",
"g  c #363135",
"h  c #450F1C",
"j  c #45111D",
"k  c #4B101F",
"l  c #452D1E",
"z  c #441626",
"x  c #4B1523",
"c  c #4A1922",
"v  c #4D1728",
"b  c #541324",
"n  c #5D1225",
"m  c #551729",
"M  c #5C172A",
"N  c #611527",
"B  c #65162A",
"V  c #6C172C",
"C  c #73172D",
"Z  c #74182E",
"A  c #78182F",
"S  c #432626",
"D  c #492324",
"F  c #412920",
"G  c #432429",
"H  c #4D2D2C",
"J  c #492629",
"K  c #502D2E",
"L  c #4C3022",
"P  c #4B392F",
"I  c #543524",
"U  c #5B3A26",
"Y  c #513128",
"T  c #5C382A",
"R  c #5C362F",
"E  c #4F2B31",
"W  c #532D33",
"Q  c #433434",
"!  c #493B3A",
"~  c #463A39",
"^  c #523735",
"/  c #5C3435",
"(  c #5D3239",
")  c #583C3A",
"_  c #623D2B",
"`  c #61353B",
"'  c #663A3B",
"]  c #633B32",
"[  c #723F3B",
"{  c #5E483C",
"}  c #67402C",
"|  c #6B432C",
" . c #72472F",
".. c #6B4238",
"X. c #724535",
"o. c #7A4B33",
"O. c #77453C",
"+. c #242E4A",
"@. c #3E3C40",
"#. c #22466B",
"$. c #474447",
"%. c #564542",
"&. c #5E4A43",
"*. c #5E4B49",
"=. c #564545",
"-. c #5A5458",
";. c #644C44",
":. c #6D4E46",
">. c #604C4B",
",. c #6F4040",
"<. c #754344",
"1. c #7A4A46",
"2. c #67514E",
"3. c #785B4C",
"4. c #665251",
"5. c #6A5553",
"6. c #6D5856",
"7. c #64595D",
"8. c #6E5D5C",
"9. c #735E5B",
"0. c #79625F",
"q. c #5E6065",
"w. c #6B6362",
"e. c #676363",
"r. c #726669",
"t. c #7B6D6C",
"y. c #7A6460",
"u. c #766F70",
"i. c #834F3B",
"p. c #835234",
"a. c #8B563A",
"s. c #925A3D",
"d. c #9A613C",
"f. c #A6693F",
"g. c #854B49",
"h. c #81524B",
"j. c #8A584E",
"k. c #9B5F41",
"l. c #8E5252",
"z. c #895F54",
"x. c #905353",
"c. c #8F6356",
"v. c #A26541",
"b. c #A76840",
"n. c #AF6D43",
"m. c #A1665B",
"M. c #836A67",
"N. c #886E6A",
"B. c #987564",
"V. c #847676",
"C. c #B57265",
"Z. c #C17D6D",
"A. c #BB806E",
"S. c #BA8774",
"D. c #D08676",
"F. c #C5967C",
"G. c #CB957D",
"H. c #D2917C",
"J. c #4C6F83",
"K. c #758190",
"L. c #8C8483",
"P. c #84848B",
"I. c #938685",
"U. c #908888",
"Y. c #8C9CAD",
"T. c #AFA8A6",
"R. c #B6AEAC",
"E. c #E39F88",
"W. c #D9A589",
"Q. c #DDB09A",
"!. c #E5A189",
"~. c #E3AD90",
"^. c #EBB294",
"/. c #F4B296",
"(. c #FABA9B",
"). c #C0B6B5",
"_. c #FFC3A2",
"`. c #FFCFB4",
"'. c #FFD4BA",
"]. c #C1C7CF",
"[. c #DBD1CE",
"{. c #C3C9D2",
"}. c #D3D3D5",
"|. c #E6DDDA",
" X c #E8DFDB",
".X c #EBE4E2",
/* pixels */
"                                                                                                    ",
"                                                                                                    ",
"                                                                                                    ",
"                                      - ; ; ;                                                       ",
"                              @ & h k N C C V k k k j = @ #                                         ",
"                        ; , h B B C C C C C C C Z Z Z B B N < >                                     ",
"                    - x B C Z Z C C C C C C C C C C C C A C n b j ,                                 ",
"                  h V C C C Z A C C C C C C C C C C B b b J r.r : ,                                 ",
"                - C C C C C B B C C C C C C C Z B m y d -.T. X7.4 O                                 ",
"                  b C C M v u z V C C C C C Z M u 4 7.T.L.t.[.R.5                                   ",
"                  < C M u u u z C C C C C C B u f u.R.I.*.! I. X-.                                  ",
"                    ; 7 u u u v V C C C C B u d U.I.8.>.=.5.N.|.e.                                  ",
"                      % 7 u z V Z C C C B z 3 =.8.4.) ' =.N.5.).e.                                  ",
"                        3 z B C C C Z V z t Q 9.*.:.j.S.;.M.6.U.                                    ",
"                        z B C C C C Z M 4 =.N.2./ :.&.%.Q M.9.L.                                    ",
"                      = V C C C C C V v s 0.2.) ;.~ ^ z.&.9.V.L.                                    ",
"                      k C C C C C C B y Q M.) A.G.[ g.D.>.0.t.$.                                    ",
"                    ; V C C C C C C v t *.4.h.!.1.-.g c.B.~ g                                       ",
"                  # n C C C C C C V z t y.*.m.S.K.Y.+.5.G.X                                         ",
"                  + B C C C C C C M u 3 9.^ !._..X}.#.r.F.                                          ",
"                  + B C C C C C V m u 3 8.^ E._.'. XJ.w.W.P                                         ",
"                  # B C C C C C V z u t 5.^ E._._.`.Q.W._.F.                                        ",
"                    b C C C C C V z u t a h./._._._._._._.~.q                                       ",
"                    < C C C C C M u u u 9 C.(._._._._._._.F.                                        ",
"                    : m V C C N u u u u 7 R Z.(._._._._._.3.                                        ",
"                      % 7 M u 7.P.i u u u 7 9 1.H.!./._.^.{                                         ",
"                          % % $.{.P.i 7 4 4 4 : 0 H m.C.z.                                          ",
"                                q.].g 9 J S S 1 3 4 ; ; -                                           ",
"                                  a r < N b j H S i 7 y 4                                           ",
"                                  O 4 k A B m k z [ ^ ; ;                                           ",
"                                    * j B 7 8 Z C k ' D $                                           ",
"                                    - B b & u V C V c ' 5                                           ",
"                                    + x - 4 u m C C V c S                                           ",
"                                    ( s & 4 u z V C C b s                                           ",
"                                  s l.<.W 1 u u m C V C h                                           ",
"                                  s l.g.( 1 3 4 : 4 7 x < .                                         ",
"    9 T _ @                       * <.l.` 5 H H H E H H s .           O I o.U                       ",
"      5 w | l                       H l.<.# - 3 3 4 8 j ,           5 _ _ l                         ",
"          w |  .l e                 5 ' H - 1 4 7 u v B B ;     w U | I                             ",
"              Y a.a. .| 2 2 2 2 F L 9 : 4 4 S H s 1 1 3 9 D _ p.v.p.                                ",
"                2 Y X.k.d.b.b.b.v.O.1 ; 4 4 J O.O.i.o.k.b.n.d.o.L                                   ",
"                    * 5 F X.X.X.] 2     X & i 5 R o.k.d.} L e                                       ",
"                            O O           * W 5 i i s s 1.<.@                                       ",
"                                          * ( E i ( ( ` ' /                                         ",
"                                          & W ( s i E G 3 +                                         ",
"                                            9 s W S O % 7 @                                         ",
"                                              + 3 & . , 4                                           ",
"                                              4 4 o . 4 @                                           ",
"                                            O y ;     O                                             ",
"                                              # .                                                   "
};
