/* XPM */
static char *Walk_2_resized[] = {
/* columns rows colors chars-per-pixel */
"50 50 173 2 ",
"   c None",
".  c #000203",
"X  c #060608",
"o  c #0F060A",
"O  c #090304",
"+  c #13060A",
"@  c #140B0D",
"#  c #18090F",
"$  c #1D060B",
"%  c #1C0B12",
"&  c #191210",
"*  c #230D15",
"=  c #2A0A13",
"-  c #250E18",
";  c #330C16",
":  c #330E19",
">  c #3B0E1A",
",  c #241316",
"<  c #2C1D16",
"1  c #25131B",
"2  c #2C131C",
"3  c #2D191B",
"4  c #261815",
"5  c #301F16",
"6  c #33131D",
"7  c #351D1E",
"8  c #302017",
"9  c #35201E",
"0  c #3B261B",
"q  c #2E1B23",
"w  c #341421",
"e  c #3B1625",
"r  c #341C23",
"t  c #3B1820",
"y  c #2E2A2E",
"u  c #3B2223",
"i  c #36242A",
"p  c #242B3F",
"a  c #3E2B33",
"s  c #3B363B",
"d  c #420F1C",
"f  c #46101E",
"g  c #49121F",
"h  c #422A1D",
"j  c #4A301F",
"k  c #431523",
"l  c #4D1424",
"z  c #4D1728",
"x  c #441821",
"c  c #551323",
"v  c #5C1325",
"b  c #541729",
"n  c #5C172A",
"m  c #621427",
"M  c #63162A",
"N  c #6D172C",
"B  c #73172D",
"V  c #76182E",
"C  c #422524",
"Z  c #44252A",
"A  c #462828",
"S  c #4C292C",
"D  c #452926",
"F  c #532C2E",
"G  c #4A3328",
"H  c #523325",
"J  c #5D3B26",
"K  c #5B372A",
"L  c #4E2A30",
"P  c #542E34",
"I  c #473938",
"U  c #4C3C3A",
"Y  c #433439",
"T  c #5D3333",
"R  c #5A3834",
"E  c #573839",
"W  c #5A3F3C",
"Q  c #543132",
"!  c #643F2A",
"~  c #6B3E3F",
"^  c #653B35",
"/  c #56403F",
"(  c #5C413F",
")  c #6C442D",
"_  c #73492E",
"`  c #6E483F",
"'  c #724632",
"]  c #734831",
"[  c #784838",
"{  c #794C32",
"}  c #1C355A",
"|  c #443C43",
" . c #543C45",
".. c #2E5C78",
"X. c #4B4444",
"o. c #544342",
"O. c #594644",
"+. c #5C4945",
"@. c #5D4A49",
"#. c #565353",
"$. c #5D5255",
"%. c #56585D",
"&. c #664443",
"*. c #614E4B",
"=. c #6A4440",
"-. c #744244",
";. c #7A4A47",
":. c #66524B",
">. c #7F5048",
",. c #7C5B4E",
"<. c #655351",
"1. c #6A5654",
"2. c #735E5C",
"3. c #75605E",
"4. c #79625F",
"5. c #585861",
"6. c #7A6A6B",
"7. c #766665",
"8. c #7F7170",
"9. c #777372",
"0. c #895537",
"q. c #945B3D",
"w. c #A1653F",
"e. c #844B4B",
"r. c #835149",
"t. c #965A41",
"y. c #8E5252",
"u. c #905353",
"i. c #955850",
"p. c #896657",
"a. c #9E685B",
"s. c #94715D",
"d. c #A56840",
"f. c #AA6945",
"g. c #A16440",
"h. c #B26F46",
"j. c #836A66",
"k. c #9D7566",
"l. c #867E7D",
"z. c #9D7E74",
"x. c #AC6C60",
"c. c #A37C66",
"v. c #BA7B6B",
"b. c #B57D6C",
"n. c #C58573",
"m. c #C18875",
"M. c #697C8F",
"N. c #7A7A80",
"B. c #807F86",
"V. c #978A8A",
"C. c #96908F",
"Z. c #B09589",
"A. c #A29B99",
"S. c #A39695",
"D. c #B4ABA9",
"F. c #CD9C83",
"G. c #D79781",
"H. c #D89781",
"J. c #DF9D86",
"K. c #EDA98F",
"L. c #ECB497",
"P. c #FABA9B",
"I. c #F6B799",
"U. c #CABFBD",
"Y. c #FFC3A2",
"T. c #B9BDC4",
"R. c #BCC0C9",
"E. c #CDC4C2",
"W. c #D6CCCA",
"Q. c #CFCFD3",
"!. c #D9D3D2",
"~. c #FFDFCA",
"^. c #FDD7C2",
/* pixels */
"                                                                                                    ",
"                                                                                                    ",
"                                                                                                    ",
"                                                                                                    ",
"                                                                                                    ",
"                                                                                                    ",
"                                              : : ;                                                 ",
"                                      * > c v B B B v c c c = * *                                   ",
"                                > f v N B B B B B B B B B B B N m d =                               ",
"                            ; v B B B B B B B B B B B B B B B B m l d k                             ",
"                          l N B B B B B B B B B B B B B N b k Z 6.9.% -                             ",
"                          m B B B N b M B B B B B B B n k q $.l.W.E.a #                             ",
"                          d B N z e e b B B B B B B b 6 r A.D.<.8.!.6.&                             ",
"                            c l e e e b B B B B B n w $.A.V.2. .@.U.D.                              ",
"                              1 e e e n B B B B M w Y l.7.<.I <.4.S.D.                              ",
"                                q e n V B B B M e 2 o.1.o.=.a.@.j.8.C.                              ",
"                                2 n B B B B B z r <.4.W p.>.p.O.j.6.#.                              ",
"                              $ m B B B B B M w  .j.( R U I ( o.4.C.#.                              ",
"                              > B B B B B B z q 4.@.>.k.R r.b.*.4.l.                                ",
"                              v B B B B B M e i 3.&.J.v.&.E b.:.<.X.                                ",
"                            g B B B B B B n 2 O.3.;.m.5.M.p k.s.X                                   ",
"                            v B B B B B B z w O.+.b.L.Q.R.} z.s.                                    ",
"                            v B B B B B N k 2 O./ m.Y.~.Q...z.k.                                    ",
"                            m B B B B B M e 2 O./ n.Y.Y.^.Z.F.I.,.                                  ",
"                            c B B B B B n e r r ( m.Y.Y.Y.Y.Y.Y.k.                                  ",
"                            : B B B B B z e e 1 i.P.Y.Y.Y.Y.Y.Y.k.                                  ",
"                            - n B B m l e e e w K v.P.Y.Y.Y.Y.L.G                                   ",
"                              % t n  .N.e e e e w 7 r.H.K.P.Y.F.                                    ",
"                                  @ | T.N.r q 6 6 w 2 u T x.v.`                                     ",
"                                      5.T.s r A Z r 2 2 2 2 2 %                                     ",
"                                        y q d v l u Z u 7 2 6 *                                     ",
"                                        o 1 c B b f g F ~ 6 > %                                     ",
"                                          - m N - l B v F T g +                                     ",
"                                          = B l * b B B v T S O                                     ",
"                                          * l ; * b B B B c T D                                     ",
"                                        3 -.S , * x n B B B g u                                     ",
"                                        u y.-.L 1 e k n M N m *                                     ",
"              4     X X X X X X X X X . u y.e.L % 3 3 3 3 e g * . X X X X   < 8                     ",
"            3 K ! <                     3 ;.e.L 3 A Z Z Z Z A 4           h _ )                     ",
"                5 ) J                     ~ u.P % 1 2 6 c v v ;       < K _ 8                       ",
"                    H ] ] 0 <           & 3 u w - 7 2 2 l m m > & 0 ] { H                           ",
"                      u ' 0.g.] J J J ' [ , 2 e , R ^ C t C ! { q.w.0.j                             ",
"                          3 K ' g.f.f.t.H o + * , C ^ t.f.h.g.0._ 0                                 ",
"                                5 9 9 9         , Z u 0 G K K P @                                   ",
"                                                  Z P L P P ;.e.4                                   ",
"                                                  + * 3 Z P ~ P                                     ",
"                                                  % w w * 1 4                                       ",
"                                                % w w - %                                           ",
"                                                o + # 2 -                                           ",
"                                                      2 #                                           "
};
