/* XPM */
static char *Walk_1_resized[] = {
/* columns rows colors chars-per-pixel */
"50 50 190 2 ",
"   c None",
".  c #0D0609",
"X  c #0F0C0E",
"o  c #070304",
"O  c #11070A",
"+  c #130A0D",
"@  c #140308",
"#  c #1B130F",
"$  c #160C11",
"%  c #1C0C12",
"&  c #1D1311",
"*  c #22060D",
"=  c #230D14",
"-  c #2A0D15",
";  c #250F18",
":  c #2A0F18",
">  c #330B15",
",  c #340E18",
"<  c #3D0F1A",
"1  c #231315",
"2  c #291616",
"3  c #261915",
"4  c #2D1E16",
"5  c #27121A",
"6  c #2C131C",
"7  c #2C1A1A",
"8  c #32131E",
"9  c #3C131B",
"0  c #331C1D",
"q  c #36231A",
"w  c #39241C",
"e  c #382519",
"r  c #2A1922",
"t  c #351521",
"y  c #3B1624",
"u  c #361D21",
"i  c #3D1B22",
"p  c #2F2024",
"a  c #3E2324",
"s  c #35252B",
"d  c #3A2A2B",
"f  c #3C2E34",
"g  c #352B30",
"h  c #39383C",
"j  c #420F1B",
"k  c #4A0F1E",
"l  c #44111E",
"z  c #4A131F",
"x  c #431C1F",
"c  c #442B1E",
"v  c #431625",
"b  c #4A1727",
"n  c #4C1D25",
"m  c #4F1728",
"M  c #531222",
"N  c #5D1325",
"B  c #541729",
"V  c #5C172A",
"C  c #5D182B",
"Z  c #621326",
"A  c #64162A",
"S  c #6D162B",
"D  c #73172D",
"F  c #72182E",
"G  c #422524",
"H  c #442826",
"J  c #44292A",
"K  c #4D2D2E",
"L  c #492A28",
"P  c #5A212F",
"I  c #4E3123",
"U  c #44342C",
"Y  c #49382E",
"T  c #53312B",
"R  c #5E3A2C",
"E  c #4F2C37",
"W  c #562E35",
"Q  c #4D3837",
"!  c #443C3C",
"~  c #4C3B3A",
"^  c #493637",
"/  c #5C3536",
"(  c #5B3F3C",
")  c #5B3939",
"_  c #663F2D",
"`  c #653D3B",
"'  c #6A3E3B",
"]  c #55423D",
"[  c #5B423F",
"{  c #66402A",
"}  c #6D452C",
"|  c #754A2F",
" . c #70462F",
".. c #66423D",
"X. c #6D4236",
"o. c #724535",
"O. c #7A4C33",
"+. c #73433D",
"@. c #7C4B39",
"#. c #774B30",
"$. c #363B53",
"%. c #593A42",
"&. c #6C3C40",
"*. c #37556B",
"=. c #434041",
"-. c #434448",
";. c #594645",
":. c #584745",
">. c #5B4C50",
",. c #654E42",
"<. c #604E4C",
"1. c #794646",
"2. c #64514F",
"3. c #6D5144",
"4. c #785047",
"5. c #665451",
"6. c #695553",
"7. c #6D5956",
"8. c #665859",
"9. c #725E5C",
"0. c #79625F",
"q. c #424D66",
"w. c #455469",
"e. c #5E6D7E",
"r. c #746362",
"t. c #7D6662",
"y. c #7B6E6D",
"u. c #756E6F",
"i. c #7C7675",
"p. c #747077",
"a. c #85513B",
"s. c #875438",
"d. c #945C3B",
"f. c #9B613D",
"g. c #A4673F",
"h. c #A5683F",
"j. c #834C4C",
"k. c #884E4F",
"l. c #874D47",
"z. c #88554D",
"x. c #8C5151",
"c. c #845C51",
"v. c #915453",
"b. c #935B52",
"n. c #8E695A",
"m. c #A16442",
"M. c #AC6C43",
"N. c #846B67",
"B. c #9B7362",
"V. c #817574",
"C. c #8A7D7D",
"Z. c #817B7B",
"A. c #B86F63",
"S. c #AB7163",
"D. c #AA7E6B",
"F. c #B77667",
"G. c #B68A73",
"H. c #C48372",
"J. c #CF8E7A",
"K. c #D3917C",
"L. c #D8907D",
"P. c #4F6D83",
"I. c #887F80",
"U. c #9F9796",
"Y. c #8C8585",
"T. c #A59A99",
"R. c #A9A09F",
"E. c #A7A09E",
"W. c #A1A6AD",
"Q. c #B1A8A7",
"!. c #B8B1AF",
"~. c #B3AFB1",
"^. c #ADB2BA",
"/. c #B1B6BF",
"(. c #D49B82",
"). c #E69D87",
"_. c #DEA78B",
"`. c #E0A98C",
"'. c #ECB193",
"]. c #FABA9B",
"[. c #F2B496",
"{. c #C3B9B7",
"}. c #FFC3A2",
"|. c #D4CBC8",
" X c #D8D0CD",
".X c #DFD5D3",
"XX c #FFDAC6",
"oX c #E2D8D6",
"OX c #D5DEE6",
"+X c #FAF5F3",
/* pixels */
"                                                                                                    ",
"                                                                                                    ",
"                                                                                                    ",
"                                              = = =                                                 ",
"                                      O < < M F S S b l < l - . .                                   ",
"                              % - , N N S D D D D F D D D D A N N j -                               ",
"                          O < N F F D D D D D D D D F D F F D D D S Z j 9                           ",
"                        , N F D F F F D D D D D D D D D D F Z Z M %.f ; <                           ",
"                      = S F F F D S S F D D D D D D F F C b , s i.|.Y.6 %                           ",
"                        N F D S C b v S D D D D D D S b t d p.R.V.|. Xf $                           ",
"                        < F S v y y v S D D F F D S m t f U.{.r.! y..XZ.                            ",
"                          < y y y y y S D D F F F M t 8.Q.C.5.5.:.8..XE.                            ",
"                            $ t y y V F D F D F B t f y.9.>.( ^ t.0.T.E.                            ",
"                              ; y B F F D D D V t 3 :.7.:.` S.c.7.0.G.e.                            ",
"                              : B F F D D D S v s 7.t.[ 4.n.,.,.7.0.i.=.                            ",
"                              N D D F D D D C r :.N.[ / Q ! ] ] 7.7.W.]                             ",
"                            > F D D D D F F v r N.>.4.D...' A.n.6.0.Z.                              ",
"                            M D D D D D D C t d 0.( L.K.j.Q b.B.2.6.]                               ",
"                          z D D D D D D D B 5 2.0.` K.>.e.w.g _.f X                                 ",
"                        O Z D D D D D D S v 5 5.;.S.'.~.OXq.$._.Y                                   ",
"                          N D D D D D D A y ; 5.%.G.}.}.+XP.*._.]                                   ",
"                        . Z D D D D D D B y ; 5.~ J.}.}.XX!.8.[.G.                                  ",
"                          N D F D D D D b y r ^ ~ H.}.}.}.}.}.}.}...                                ",
"                          < D D D D D S b y y 1 z.[.}.}.}.}.}.}.}.3.                                ",
"                          : F D D D S V y y y t j.`.}.}.}.}.}.}.(.d                                 ",
"                          % 8 C S P E y y y y t 9 ' J.].}.}.}.}.G.                                  ",
"                              % > p.^.f t t 8 t y 5 i z.F.L.].[.3.                                  ",
"                                  h /.^.s u H G 5 8 t 6 1 / +.'                                     ",
"                                    -.W.h 8 0 0 K G 6 6 8 6 6 : O                                   ",
"                                      $ r j A y ; 0 H H K 5 ; y O                                   ",
"                                        5 j F v y Z M x 1.G k : .                                   ",
"                                        = N C 5 : F D S b ' B >                                     ",
"                                        * S b % t A D D S b ' 1                                     ",
"                                        @ N < $ y m D D D S n ` 1                                   ",
"                                      3 a a 5 + y y C F D D N H 7                                   ",
"                                      a v.k.` ; y y v C S S D z O                                   ",
"                                      1 1.x.&.% 1 5 5 5 6 8 v j O                                   ",
"          0 R { &                       / v.1.u K K T K T K K K +             e O. .e               ",
"            3 w } I                     7 j.k.K $ ; ; 1 : < j < O         & I #.c 4                 ",
"                q { } c q               . 5 / G O 6 5 8 V F D F >     7 I } { 7                     ",
"                    K s.d. .} 3 & & & w G 1 : 6 6 H T H 1 8 9 9 x T #.f.f.c                         ",
"                      3 T o.m.d.g.g.h.g.a.2 ; 6 8 1 ' +.@.@.a.g.h.M.s.} 3                           ",
"                          & 7 c o.@.@.o.0       = / J T @.d.M.| c c                                 ",
"                                X X X +         0 j.k./ H K a & 7                                   ",
"                                                & K &.k.1.&.W 0 &                                   ",
"                                                  O 6 u W K 8 7                                     ",
"                                                + 8 t ; $ = 5 O                                     ",
"                                              . 8 t ; O   6 t o                                     ",
"                                              . ; O       6 =                                       ",
"                                                          + O                                       "
};
