/* XPM */
static char *enemy_8_resized[] = {
/* columns rows colors chars-per-pixel */
"50 50 146 2 ",
"   c None",
".  c #110C08",
"X  c #1E140B",
"o  c #1E150D",
"O  c #1F160D",
"+  c #20170F",
"@  c #22170E",
"#  c #23180F",
"$  c #221910",
"%  c #231910",
"&  c #241910",
"*  c #241A11",
"=  c #261B11",
"-  c #261C13",
";  c #281C11",
":  c #2C2015",
">  c #2D2015",
",  c #2D2116",
"<  c #2F251D",
"1  c #302013",
"2  c #322215",
"3  c #342416",
"4  c #362617",
"5  c #382617",
"6  c #362618",
"7  c #30261E",
"8  c #382718",
"9  c #3B2A1B",
"0  c #3C291A",
"q  c #3F2B1B",
"w  c #312820",
"e  c #322921",
"r  c #432C1A",
"t  c #432D1B",
"y  c #412D1C",
"u  c #432E1D",
"i  c #442E1C",
"p  c #442F1D",
"a  c #452F1D",
"s  c #462F1C",
"d  c #452F1E",
"f  c #45301E",
"g  c #46301E",
"h  c #47301E",
"j  c #47311E",
"k  c #48311F",
"l  c #48321F",
"z  c #49321F",
"x  c #413226",
"c  c #433326",
"v  c #463424",
"b  c #483220",
"n  c #4A3220",
"m  c #4A3320",
"M  c #4B3320",
"N  c #493423",
"B  c #4C3420",
"V  c #4C3421",
"C  c #4D3521",
"Z  c #4E3521",
"A  c #4E3622",
"S  c #4F3722",
"D  c #4F3A29",
"F  c #503722",
"G  c #513723",
"H  c #513823",
"J  c #533923",
"K  c #543924",
"L  c #563B25",
"P  c #573B25",
"I  c #583C26",
"U  c #583D26",
"Y  c #593D26",
"T  c #5A3E26",
"R  c #5A3E27",
"E  c #5C3F27",
"W  c #503B2B",
"Q  c #563F2C",
"!  c #5A412B",
"~  c #5E4128",
"^  c #5F4229",
"/  c #59412D",
"(  c #604229",
")  c #614229",
"_  c #61432A",
"`  c #644429",
"'  c #64452B",
"]  c #67472C",
"[  c #68472C",
"{  c #6F492A",
"}  c #69482C",
"|  c #6A492D",
" . c #6C4A2D",
".. c #6C4A2E",
"X. c #6E4B2E",
"o. c #6F4C2F",
"O. c #714C2E",
"+. c #724D2F",
"@. c #624936",
"#. c #694F3B",
"$. c #704D30",
"%. c #714D30",
"&. c #734F31",
"*. c #744F31",
"=. c #745031",
"-. c #765132",
";. c #735339",
":. c #79573A",
">. c #736C66",
",. c #746D67",
"<. c #7E6F64",
"1. c #7C7067",
"2. c #7E7369",
"3. c #78726C",
"4. c #7C7570",
"5. c #8F735C",
"6. c #8A7B6F",
"7. c #927764",
"8. c #857A70",
"9. c #888079",
"0. c #96867E",
"q. c #F67A88",
"w. c #F67F8C",
"e. c #958A82",
"r. c #998B84",
"t. c #998E86",
"y. c #9E9089",
"u. c #B8A99D",
"i. c #BCAFAD",
"p. c #F4919D",
"a. c #C9BDBC",
"s. c #CAC3BD",
"d. c #CEC5BE",
"f. c #CFCDCA",
"g. c #D2D1CE",
"h. c #D9D7D3",
"j. c #D9D4D4",
"k. c #DEDCD9",
"l. c #ECCDD0",
"z. c #ECCED1",
"x. c #ECD3D5",
"c. c #E0D9DA",
"v. c #E8DADB",
"b. c #E9EAEA",
"n. c #E9EBEB",
"m. c #EDEEEF",
/* pixels */
"                                                                                                    ",
"                                                                                                    ",
"                                                                                                    ",
"                                                                                                    ",
"                                                                                                    ",
"                                                                                                    ",
"                                                                                                    ",
"                                                                                                    ",
"                                                                                                    ",
"                                                                                                    ",
"                                                                                                    ",
"                                                                                                    ",
"                                                                                                    ",
"                                                                                                    ",
"                                                                                                    ",
"                                                                                                    ",
"                                                                                                    ",
"                                            =.&.+.{                                                 ",
"                                          %._ O.5.d.u.                                              ",
"                      o G -.&.            ~ z / s.m.k.        &.                                    ",
"                  . 8 q l F S V ] =.&.$.E U t t.n.x.p.h.:.*.( F 4 A                                 ",
"                    G g g f f g B Z Z C z z i y.b.l.q.g.Q Z m f y 9                                 ",
"                  ; k g g g g g g f f g g h s 0.j.z.w.f.D d g g j 6 $                               ",
"                  # p g g g g g g g g g f E X.#.i.c.v.<.r   g f p O                                 ",
"                    3 j g g g g g g g g g b !  .7.a.r.N         p                                   ",
"                    u g g g           g g W 9.v ;.@.c 5                                             ",
"                                        h 2 # 3.,.>.4.                                              ",
"                                        k 1 X @ @ @ *                                               ",
"                                    : o.J x < 7 w e -                                               ",
"                                    = | ` 6.1.2.8.e.                                                ",
"                                      n ^ T } } [ } ..H :                                           ",
"                                      0 L h p d a m I K %                                           ",
"                                      + 3     g     f u                                             ",
"                                      , &   ' h     f >                                             ",
"                                            '                                                       ",
"                                            P                                                       ",
"                                            n                                                       ",
"                                          ) M                                                       ",
"                                          Y                                                         ",
"                                          R                                                         ",
"                                          R                                                         ",
"                                                                                                    ",
"                                                                                                    ",
"                                                                                                    ",
"                                                                                                    ",
"                                                                                                    ",
"                                                                                                    ",
"                                                                                                    ",
"                                                                                                    ",
"                                                                                                    "
};
