/* XPM */
static char *enemy_7_resized[] = {
/* columns rows colors chars-per-pixel */
"50 50 158 2 ",
"   c None",
".  c #0F0B07",
"X  c #180D04",
"o  c #190E04",
"O  c #1A0E05",
"+  c #140E09",
"@  c #17100A",
"#  c #1C1108",
"$  c #1A130C",
"%  c #1F160F",
"&  c #20170F",
"*  c #251A10",
"=  c #241A11",
"-  c #271C12",
";  c #271C13",
":  c #271D13",
">  c #291D12",
",  c #2A1E13",
"<  c #2E2014",
"1  c #2F2014",
"2  c #312215",
"3  c #342214",
"4  c #352517",
"5  c #362516",
"6  c #372618",
"7  c #392718",
"8  c #392719",
"9  c #3A291B",
"0  c #3C2A1A",
"q  c #3D2A1B",
"w  c #3F2B1B",
"e  c #3A2D23",
"r  c #422C19",
"t  c #412C1A",
"y  c #402C1B",
"u  c #422C1A",
"i  c #432C1A",
"p  c #432E1C",
"a  c #422E1D",
"s  c #432E1D",
"d  c #442E1C",
"f  c #442F1D",
"g  c #452F1D",
"h  c #452F1E",
"j  c #45301E",
"k  c #46301E",
"l  c #47301E",
"z  c #47311E",
"x  c #47311F",
"c  c #47321F",
"v  c #48311F",
"b  c #48321F",
"n  c #49321F",
"m  c #4A321E",
"M  c #4A321F",
"N  c #423021",
"B  c #4A3320",
"V  c #4B3320",
"C  c #4B3420",
"Z  c #4C3420",
"A  c #4D3521",
"S  c #4F3520",
"D  c #4E3521",
"F  c #4F3622",
"G  c #503722",
"H  c #503723",
"J  c #513823",
"K  c #523823",
"L  c #533923",
"P  c #543924",
"I  c #553A24",
"U  c #553B25",
"Y  c #573B24",
"T  c #593C24",
"R  c #5A3C24",
"E  c #593D26",
"W  c #5A3E27",
"Q  c #5F4026",
"!  c #5E4027",
"~  c #5A402A",
"^  c #5F4128",
"/  c #5F4129",
"(  c #484039",
")  c #574434",
"_  c #604026",
"`  c #604127",
"'  c #604229",
"]  c #634328",
"[  c #61432A",
"{  c #63442A",
"}  c #64442B",
"|  c #64452B",
" . c #65452B",
".. c #66462C",
"X. c #68462A",
"o. c #68472C",
"O. c #69482D",
"+. c #6B492E",
"@. c #6B4A2E",
"#. c #6C4A2E",
"$. c #6D4B2F",
"%. c #6E4C2F",
"&. c #724E30",
"*. c #734F31",
"=. c #744F31",
"-. c #745032",
";. c #755133",
":. c #4E4741",
">. c #4F4741",
",. c #534942",
"<. c #534B45",
"1. c #58514C",
"2. c #5C554F",
"3. c #5E5751",
"4. c #615246",
"5. c #6D5645",
"6. c #635549",
"7. c #735E4C",
"8. c #725E4D",
"9. c #605953",
"0. c #675F58",
"q. c #726255",
"w. c #736457",
"e. c #786453",
"r. c #7C6553",
"t. c #756358",
"y. c #7C6959",
"u. c #7E6F63",
"i. c #846E5C",
"p. c #8B715C",
"a. c #90755E",
"s. c #8C7565",
"d. c #89786F",
"f. c #998274",
"g. c #F57482",
"h. c #A59281",
"j. c #A19284",
"k. c #A99686",
"l. c #A0978F",
"z. c #BBAFAD",
"x. c #F3A6AF",
"c. c #C4C0BC",
"v. c #C8C1B8",
"b. c #D1C6C6",
"n. c #DFC6C7",
"m. c #DBD4D4",
"M. c #DFDEDE",
"N. c #EDC5C9",
"B. c #EDC7CB",
"V. c #F1CACF",
"C. c #E1DFDF",
"Z. c #EDDFE1",
"A. c #E5E3E2",
"S. c #E5E6E5",
"D. c #E9E8E9",
"F. c #E8ECEB",
"G. c #E9EDEC",
"H. c #ECEEEE",
/* pixels */
"                                                                                                    ",
"                                                                                                    ",
"                                                                                                    ",
"                                                                                                    ",
"                                                                                                    ",
"                                                                                                    ",
"                                                                                                    ",
"                                                                                                    ",
"                                                                                                    ",
"                                                                                                    ",
"                                                                                                    ",
"                                                                                                    ",
"                                                                                                    ",
"                                                                                                    ",
"                                            =.#.*.;.a.k.                                            ",
"                                            $.K ` p.A.S.h.                                          ",
"                                            / p ) c.H.N.Z.                                          ",
"                                        O.L U r u.D.G.g.B.v.                                        ",
"                                    -.o.I g g t t.m.F.g.V.j._ { { { ^                               ",
"                        0 +       } [ V g j D Y 5.z.C.x.n.w.u f f g y 1                             ",
"                    * D O.4 G } ' M f j k j J ] X.s.b.M.l.i k k k k k H                             ",
"                    b j P P ' b f k k k k k k q.~ %.f.d.N d     k z s , ;                           ",
"                      z h j f k k k k k   l w 0.,.8.e.6.e         7 n @ &                           ",
"                      6 k k k k k k k     x 5 X ( <.2.3.            c                               ",
"                      * l k k k k         x 3 # O o o o                                             ",
"                        v k k k k         m 4.:.1.1.>.9.                                            ",
"                        < s k k     % - &.! 7.r.i.i.y.                                              ",
"                        + 8         . * W ..S R T T Q     9                                         ",
"                                        z |     g s C  .' q :                                       ",
"                                          n     k   g F F y $                                       ",
"                                        : > s   B     j a                                           ",
"                                              @.A       2 =                                         ",
"                                              +.A                                                   ",
"                                              #.A                                                   ",
"                                              E z                                                   ",
"                                              I                                                     ",
"                                              Z                                                     ",
"                                                                                                    ",
"                                                                                                    ",
"                                                                                                    ",
"                                                                                                    ",
"                                                                                                    ",
"                                                                                                    ",
"                                                                                                    ",
"                                                                                                    ",
"                                                                                                    ",
"                                                                                                    ",
"                                                                                                    ",
"                                                                                                    ",
"                                                                                                    "
};
