/* XPM */
static char *image_resized[] = {
/* columns rows colors chars-per-pixel */
"50 50 192 2 ",
"   c None",
".  c #050203",
"X  c #0C0306",
"o  c #120509",
"O  c #1C050C",
"+  c #15090A",
"@  c #1B0C0D",
"#  c #170307",
"$  c #1E100C",
"%  c #16110E",
"&  c #1F0D10",
"*  c #24050D",
"=  c #2B050E",
"-  c #220B0C",
";  c #30050F",
":  c #2C190F",
">  c #2C0611",
",  c #240A12",
"<  c #2C0C15",
"1  c #210710",
"2  c #320711",
"3  c #390713",
"4  c #320A15",
"5  c #3B0915",
"6  c #340D19",
"7  c #3C0E1C",
"8  c #241112",
"9  c #2E1417",
"0  c #2D1812",
"q  c #281018",
"w  c #33141B",
"e  c #331A1A",
"r  c #3B1B1D",
"t  c #361517",
"y  c #00112E",
"u  c #3E1E20",
"i  c #392929",
"p  c #3A3737",
"a  c #410E1E",
"s  c #4C0C1C",
"d  c #460916",
"f  c #550B1B",
"g  c #5B0B1D",
"h  c #44191F",
"j  c #4A191F",
"k  c #4A131D",
"l  c #53161D",
"z  c #620C1F",
"x  c #44221C",
"c  c #4E2B1C",
"v  c #422614",
"b  c #532E1B",
"n  c #59321C",
"m  c #61371F",
"M  c #420F20",
"N  c #520F21",
"B  c #421020",
"V  c #4A1021",
"C  c #441D23",
"Z  c #481E21",
"A  c #541023",
"S  c #5F1124",
"D  c #541A22",
"F  c #591B24",
"G  c #630D21",
"H  c #6C0D22",
"J  c #730D24",
"K  c #7B0E27",
"L  c #7F0F28",
"P  c #661025",
"I  c #6C1026",
"U  c #601B2B",
"Y  c #721027",
"T  c #751028",
"R  c #7B1028",
"E  c #4B2226",
"W  c #4F2328",
"Q  c #4F2828",
"!  c #52292A",
"~  c #562829",
"^  c #413229",
"/  c #5D3323",
"(  c #50302E",
")  c #462F33",
"_  c #5F2A31",
"`  c #463534",
"'  c #4E3938",
"]  c #493839",
"[  c #573B38",
"{  c #602F2A",
"}  c #683925",
"|  c #672D35",
" . c #692E36",
".. c #6A3336",
"X. c #673A36",
"o. c #753C3B",
"O. c #7A393E",
"+. c #753A34",
"@. c #56423C",
"#. c #5A433A",
"$. c #764228",
"%. c #784327",
"&. c #62413F",
"*. c #77423D",
"=. c #583B40",
"-. c #00416E",
";. c #22586D",
":. c #544142",
">. c #5A4646",
",. c #5E5A59",
"<. c #4D4344",
"1. c #624340",
"2. c #664A4A",
"3. c #694F4D",
"4. c #604947",
"5. c #6C504E",
"6. c #7C5B4E",
"7. c #6E5959",
"8. c #785B57",
"9. c #735A5A",
"0. c #755957",
"q. c #794E46",
"w. c #556471",
"e. c #766B6D",
"r. c #7B7072",
"t. c #870F29",
"y. c #86102A",
"u. c #88102B",
"i. c #854A2C",
"p. c #8B4D2F",
"a. c #864636",
"s. c #9D5932",
"d. c #A85D39",
"f. c #AD6138",
"g. c #BA693C",
"h. c #C16C3F",
"j. c #813E42",
"k. c #8F4649",
"l. c #844643",
"z. c #944B46",
"x. c #9A4E4E",
"c. c #8F5048",
"v. c #915149",
"b. c #9F5050",
"n. c #A25252",
"m. c #82615E",
"M. c #826354",
"N. c #BF6A40",
"B. c #8A6965",
"V. c #926E6A",
"C. c #99796D",
"Z. c #977668",
"A. c #867E7D",
"S. c #8C7B7B",
"D. c #907E7E",
"F. c #8B746C",
"G. c #BB7968",
"H. c #A57F68",
"J. c #C97042",
"K. c #D97A44",
"L. c #AA826C",
"P. c #B88D74",
"I. c #CE8673",
"U. c #D78A77",
"Y. c #D8947D",
"T. c #CB987E",
"R. c #7995A7",
"E. c #978786",
"W. c #9D9392",
"Q. c #84858C",
"!. c #A2908F",
"~. c #A29997",
"^. c #AA9D9C",
"/. c #9FA1A9",
"(. c #ACA5AA",
"). c #E69882",
"_. c #D1A084",
"`. c #D9A88F",
"'. c #E7B093",
"]. c #FEBD9D",
"[. c #FCB497",
"{. c #C5B8B7",
"}. c #FFC4A1",
"|. c #F2C7AF",
" X c #FFCFB4",
".X c #D1C4C2",
"XX c #DDD3D0",
"oX c #C8C7C9",
"OX c #FFDFCB",
"+X c #E0D4D1",
"@X c #EEE1DF",
"#X c #F4F7F9",
/* pixels */
"                                                                                                    ",
"                                                                                                    ",
"                                                                                                    ",
"                                                                                                    ",
"                                                                                                    ",
"                                                        o X                                         ",
"                                              = 2 2 2 f J H H 5 2 *                                 ",
"                                    O * f g g K y.y.y.y.y.u.u.y.y.J g f * *                         ",
"                                2 5 G J u.u.u.t.y.y.y.y.y.u.y.y.y.u.u.y.L K g 2                     ",
"                                5 3 < =.P H Y T y.y.y.y.y.y.y.y.y.y.y.u.y.y.y.L z 2                 ",
"                                X 4 ] XXW.<.u 7 P R y.y.y.y.y.y.y.y.y.R y.u.u.u.y.K O               ",
"                                X , W.@X!.D.~.4.6 a P y.y.y.y.y.y.u.T V A P R y.u.G                 ",
"                                  <.XX^.:.>.E.{.e.i u P y.u.y.y.y.u.T B B B V R t.3                 ",
"                                  ,.@XE.5.:.5.8.E.^.) B P y.y.y.y.y.J B B B B 7 3                   ",
"                                  ,..X7.V.2.| =.2.9.7.q a P y.y.y.y.y.P B B 6                       ",
"                                    W.5.V.' ).G.q.&.9.[ w a I u.y.y.y.y.P B O                       ",
"                                    A.9.V.@.L.M.6.X.&.V.8.w N y.y.y.y.y.y.I 3                       ",
"                                    A.D.8.` @.] ` #.X.&.B.' 6 I u.y.y.y.u.u.H o                     ",
"                                    p F.B.@.G.z.z.G.Y.*.8.8.< A L u.y.y.y.y.y.d                     ",
"                                      i ' 8.G.+.o.*.I.I.( m.i 7 Y u.y.y.y.y.u.I *                   ",
"                                          L.C.y w.R.F.Y.X.B.] 6 P u.y.y.y.y.y.u.G                   ",
"                                          L.C.-./.#X|.].v.3.' 6 V y.u.y.y.y.y.t.H                   ",
"                                        ^ _.C.;.oXOX}.].v.3.' 6 V T y.y.u.y.t.t.H                   ",
"                                        P.}.'.`. X}.}.].v.4.) 6 7 S u.y.y.y.t.t.H                   ",
"                                      % _.}.}.}.}.}.}.}.I.! < a B S u.y.y.y.t.t.d                   ",
"                                        H.}.}.}.}.}.}.}.Y.j.4 h 7 V R y.y.y.t.t.>                   ",
"                                        #.}.}.}.}.}.[.I.a.w a B 7 7 C U L t.Y V O                   ",
"                                        i T.}.[.Y.U.l.h 6 7 7 7 7 u Q.e.7 V 1                       ",
"                                          X.v.c.~ 9 6 7 4 w u u 6 r.(.i . X                         ",
"                                          1 < 4 4 6 6 w W W Z C l 2.]                               ",
"                                          < 6 > 2 w ! E s f J G P 4                                 ",
"                                          * s z D o.F H y.T a M B ,                                 ",
"                                          O J F o.F K t.t.A , 6 B 6 X                               ",
"                                          X j o.D K t.t.I B 7 1 B B 1                               ",
"                                          e o.F K t.t.t.N M 6 O 7 B w &                             ",
"                                          ! j z L K J S 7 7 &   O 6 u E                             ",
"                                        # - c } l > , 1 O O .   X <  .l.+                   c b e   ",
"                                        O t / %.} x + , r 9       9 | k.!                 / n Q 8   ",
"                                        @ E E + v $.i./ u e         E o._           $ m i./ 8       ",
"                                        = H J I s 6 i.d.b 0 .     8 r r 9 o v n n m f.f.}           ",
"                                        2 y.y.Y A B 7 %.g.h.s.p.} +.a.{ < , %.K.J.J.a.x             ",
"                                        > H s 6 7 7 < o : } } g.g.a.+.X., < } p.c r +               ",
"                                        4 j r C u 9 E ~ ~ @   : 0 - $ @   X                         ",
"                                        e ..n.n.b.j. ...W                                           ",
"                                        9 Q x.b.k.O.| | w                                           ",
"                                        & w W  . .E u O                                             ",
"                                          & < q q q 4 4 o                                           ",
"                                          X 7 4   O < 7 6 o                                         ",
"                                            , 6       + < o                                         ",
"                                            o O                                                     "
};
