/* XPM */
static char *Attack_1_resized[] = {
/* columns rows colors chars-per-pixel */
"50 50 178 2 ",
"   c None",
".  c #0A0406",
"X  c #0C0609",
"o  c #0E090C",
"O  c #060506",
"+  c #11060A",
"@  c #180409",
"#  c #14090C",
"$  c #1A0D0E",
"%  c #19110D",
"&  c #170E10",
"*  c #1C0C12",
"=  c #1E1313",
"-  c #23070D",
";  c #220D14",
":  c #2C0C15",
">  c #260F18",
",  c #290F1A",
"<  c #310D17",
"1  c #340E19",
"2  c #3A0E19",
"3  c #221315",
"4  c #2B1C15",
"5  c #251119",
"6  c #2C131C",
"7  c #2D191B",
"8  c #281517",
"9  c #31141F",
"0  c #321B1C",
"q  c #38131F",
"w  c #35211C",
"e  c #3B2516",
"r  c #0C1530",
"t  c #2E1B22",
"y  c #341421",
"u  c #3B1624",
"i  c #341C21",
"p  c #3D1C22",
"a  c #3C2224",
"s  c #392727",
"d  c #3A2930",
"f  c #393030",
"g  c #3D3B3B",
"h  c #410F1C",
"j  c #44121D",
"k  c #4A111F",
"l  c #4A2F1F",
"z  c #50321F",
"x  c #431524",
"c  c #4B1524",
"v  c #441B21",
"b  c #4D1E24",
"n  c #4A1728",
"m  c #531323",
"M  c #5C1325",
"N  c #541728",
"B  c #5B172A",
"V  c #551C2B",
"C  c #621326",
"Z  c #64172A",
"A  c #6A162B",
"S  c #73172D",
"D  c #77182E",
"F  c #422524",
"G  c #4A2E24",
"H  c #44252A",
"J  c #462929",
"K  c #4A2A2B",
"L  c #462B23",
"P  c #483225",
"I  c #563526",
"U  c #5B3725",
"Y  c #5C3B26",
"T  c #54332A",
"R  c #4E2A30",
"E  c #542D34",
"W  c #443A3A",
"Q  c #493A39",
"!  c #473535",
"~  c #5D3535",
"^  c #5B3936",
"/  c #5C3239",
"(  c #5B3E3B",
")  c #623D2B",
"_  c #693D36",
"`  c #663D3A",
"'  c #693C3B",
"]  c #623935",
"[  c #54413E",
"{  c #58443B",
"}  c #67412A",
"|  c #6C442C",
" . c #74482F",
".. c #6C423F",
"X. c #7B4C34",
"o. c #74423D",
"O. c #7C4A3A",
"+. c #553F44",
"@. c #6C3C41",
"#. c #19456F",
"$. c #395D70",
"%. c #4E4648",
"&. c #544442",
"*. c #5B4542",
"=. c #564848",
"-. c #5A5053",
";. c #614C4C",
":. c #6F4640",
">. c #7F484A",
",. c #764544",
"<. c #63514E",
"1. c #735048",
"2. c #655250",
"3. c #605C5C",
"4. c #6D5B5B",
"5. c #6C5756",
"6. c #715C59",
"7. c #7C5D50",
"8. c #78605E",
"9. c #5C6673",
"0. c #6C6162",
"q. c #7D6562",
"w. c #746C6E",
"e. c #797173",
"r. c #8E5937",
"t. c #975D3D",
"y. c #9B613D",
"u. c #A3663F",
"i. c #884D4A",
"p. c #85524A",
"a. c #88544C",
"s. c #8E5252",
"d. c #925454",
"f. c #836557",
"g. c #AA6A43",
"h. c #B36F46",
"j. c #846B67",
"k. c #896E6B",
"l. c #876D6A",
"z. c #8D756E",
"x. c #9B796C",
"c. c #877E7D",
"v. c #9E7D72",
"b. c #A57E68",
"n. c #B47E6C",
"m. c #B27566",
"M. c #C27949",
"N. c #AB826C",
"B. c #B88C74",
"V. c #C38472",
"C. c #C88876",
"Z. c #D38D7A",
"A. c #CB957E",
"S. c #D6937D",
"D. c #888284",
"F. c #908484",
"G. c #978C8B",
"H. c #9D9392",
"J. c #A39B9A",
"K. c #A99E9D",
"L. c #8296A7",
"P. c #A6A5AA",
"I. c #D19F84",
"U. c #DC9882",
"Y. c #D9A890",
"T. c #E8B093",
"R. c #FEBD9E",
"E. c #F7B598",
"W. c #C2B9B7",
"Q. c #FFC3A1",
"!. c #F3C7AF",
"~. c #FFCFB4",
"^. c #CCC6C6",
"/. c #DAD2CF",
"(. c #DDD3D1",
"). c #FFDFCB",
"_. c #EAE0DE",
"`. c #F6F7F9",
/* pixels */
"                                                                                                    ",
"                                                                                                    ",
"                                                                                                    ",
"                                                                                                    ",
"                                                                                                    ",
"                                        + #                                                         ",
"                                ; < 2 M C C c : : < :                                               ",
"                        $ ; c c C S S S S S S S S S A m c k ; $                                     ",
"                    < m A A S D S S S S S S S S S S D D D S C M 2 :                                 ",
"                : m A S S S S S S S S S S S S S S S Z Z B V +.5 1 1                                 ",
"              * A S S S D S A S S S S S S S S S A N q i %.H./.+.6 X                                 ",
"                M S S A B n x Z S S S S S S S B u y -.H.c.G._.H.5 o                                 ",
"                < S A x u u u Z S S S S S S B y d w.W.G.=.&.K.(.%.                                  ",
"                  < y u u u u A S S S S S B y W K.F.6.2.&.2.F._.3.                                  ",
"                      y u u V S S S S S B u 7 0.4.<.&.^ ;.k.4.^.3.                                  ",
"                      * u V S S S S S Z y t &.6.&.1.m.U.Q l.5.G.                                    ",
"                      : B S S S S S A n y 6.j.*.] 7.f.N.&.k.4.N.                                    ",
"                    @ C D S S S S S C y Q j.*.` { W W { ! 8.D.D.                                    ",
"                    2 S S S S S S S n 5 6.5.:.I.m.i.i.m.&.0.w.g                                     ",
"                  ; B S S S S S S Z y s j.Q n.C.:.` ] n.8.+.f                                       ",
"                  m S S S S S S S N y W q.( S.z.L.9.r x.N.                                          ",
"                  M S S S S S S S x y Q 2.p.R.!.`.P.#.v.N.                                          ",
"                  M S S S S S S Z u y Q 2.p.R.Q.).^.$.v.I.P                                         ",
"                  C S S S S S D N u y d =.p.R.Q.Q.~.Y.T.Q.B.                                        ",
"                  h S S S S S S N u u 5 ! C.Q.Q.Q.Q.Q.Q.Q.I.&                                       ",
"                  : S S S S S Z u u u 5 _ S.Q.Q.Q.Q.Q.Q.Q.b.                                        ",
"                  * x Z S A V p u u u u q o.C.E.Q.Q.Q.Q.Q.{                                         ",
"                      ; x 1 w.D.i u q q u 6 p ,.C.Z.E.Q.A.s                                         ",
"                        o O f P.e.6 a a 6 5 y y 6 K p.a.]                                           ",
"                              W ;.x v p J J 0 6 9 6 , , =                                           ",
"                                : B N A k j H K 7 : > 9 5                                           ",
"                                * u u y A S M b ' v M j *                                           ",
"                              X y u 9 ; n S D A b ` n C @                                           ",
"                              * u u * y u B S S A b ` j .                                           ",
"                            $ 6 y y & y u n S S S A H ' 7                                           ",
"                            J p y &   * y y B C A A m v K                                           ",
"  7 G P                   # ,.~ 5 O   O & * ; 3 : k U l - @                                         ",
"  8 G I U                 K >./ 4       5 0 3 # F } | T 0 #                                         ",
"      = I X.} %           K @.a         7 i T X.| w # F F #                                         ",
"          U y.y.U z z e o 6 i a 3     . 4 G t. .0 x M C C -                                         ",
"            F X.g.h.M.| 3 3 T ' _ ) X.r.g.g.| 9 u n C S S -                                         ",
"              * a L X.I , > ] _ O.g.g.} Y 4 # > y y y x M :                                         ",
"                        X   $ $ = 4 4   & R R H 6 a p w p :                                         ",
"                                          H / / :.s.s.d.^ 0                                         ",
"                                          6 E / @.>.s.s.K 6                                         ",
"                                            * p a / / H 7 *                                         ",
"                                          # , , ; 3 5 > *                                           ",
"                                        X 6 u , &   , y O                                           ",
"                                        + 5 #       6 ;                                             ",
"                                                    $ +                                             "
};
