/* XPM */
static char *Coin_01_resized[] = {
/* columns rows colors chars-per-pixel */
"50 50 132 2 ",
"   c None",
".  c #72360A",
"X  c #753A0A",
"o  c #7A3E0A",
"O  c #7A400C",
"+  c #824409",
"@  c #8A4509",
"#  c #854B09",
"$  c #894E09",
"%  c #954B08",
"&  c #865009",
"*  c #8B5408",
"=  c #8E5B08",
"-  c #9E5307",
";  c #925509",
":  c #955B08",
">  c #804813",
",  c #8A541D",
"<  c #8E581F",
"1  c #B15906",
"2  c #B95E05",
"3  c #9D6407",
"4  c #9C6E07",
"5  c #966508",
"6  c #9E7007",
"7  c #A56B06",
"8  c #A86F06",
"9  c #B96A05",
"0  c #AD7306",
"q  c #A57A06",
"w  c #AB7B06",
"e  c #B17006",
"r  c #B37906",
"t  c #B87F05",
"y  c #8F5A20",
"u  c #966326",
"i  c #9B692B",
"p  c #AD7E34",
"a  c #AC7F3B",
"s  c #D56C03",
"d  c #DE7102",
"f  c #EC7901",
"g  c #F57D01",
"h  c #F87E01",
"j  c #AD8406",
"k  c #BC8305",
"l  c #B28B06",
"z  c #BD8A05",
"x  c #BB8B08",
"c  c #BB9505",
"v  c #BD9905",
"b  c #BE8813",
"n  c #BD8B22",
"m  c #B28334",
"M  c #B98A30",
"N  c #B1853F",
"B  c #C58D04",
"V  c #DE8502",
"C  c #D49C03",
"Z  c #C4911D",
"A  c #FF8300",
"S  c #FF8A00",
"D  c #ED9001",
"F  c #EC9901",
"G  c #F59601",
"H  c #FF9500",
"J  c #FF9C00",
"K  c #C5A404",
"L  c #D3A203",
"P  c #DBA303",
"I  c #D7AC03",
"U  c #D4B603",
"Y  c #D8B003",
"T  c #D6BA03",
"R  c #D8BE03",
"E  c #FFA200",
"W  c #FFA900",
"Q  c #E7B002",
"!  c #ECB401",
"~  c #EFB802",
"^  c #FFB400",
"/  c #F2BB01",
"(  c #FEBA00",
")  c #EEBE21",
"_  c #DDC403",
"`  c #ECC101",
"'  c #EECC01",
"]  c #F5C101",
"[  c #FCC500",
"{  c #FFC900",
"}  c #FFCB0C",
"|  c #E7D202",
" . c #EAD502",
".. c #EEDA01",
"X. c #FFD300",
"o. c #F0DD01",
"O. c #FFDB00",
"+. c #FECC14",
"@. c #FDCD1F",
"#. c #F5E201",
"$. c #FEE400",
"%. c #FEEC00",
"&. c #FFF100",
"*. c #FDCF27",
"=. c #FED12B",
"-. c #F8CE3A",
";. c #FDD131",
":. c #B68A42",
">. c #B88E46",
",. c #BB9249",
"<. c #C39B4E",
"1. c #D6AC45",
"2. c #D4AF5C",
"3. c #D5B057",
"4. c #D5B15D",
"5. c #ECC64C",
"6. c #FDD646",
"7. c #F7D14C",
"8. c #FCD64B",
"9. c #FED94F",
"0. c #ECC753",
"q. c #FDD953",
"w. c #FDDB5C",
"e. c #E4C46A",
"r. c #EBCC6C",
"t. c #FCDC64",
"y. c #FCDE6C",
"u. c #EBCD71",
"i. c #F6D976",
"p. c #FBDE72",
"a. c #FADE7B",
"s. c #FCE079",
/* pixels */
"                                                                                                    ",
"                                              X X X X                                               ",
"                                    X X X X X X X X X X X X X o                                     ",
"                              X X X X X X X X X X X X X X X X X X X X                               ",
"                          X X X X X X X X X . X . . X . X . X X X X X X X                           ",
"                        X X X X X X X o , i a >.,.,.>.a i , O X X X X X X X                         ",
"                    X X X X X X o < N 2.u.i.p.t.q.q.q.8.7.5.1.m y X X X X X X X                     ",
"                  X X X X X X y <.u.a.y.8.*.+.} { { { { { { +.+.) Z = X X X X X X                   ",
"                X X X X X > :.u.a.w.;.} { { { { { { { { { { { { { { ~ k O X X X X X                 ",
"              X X X X X y 2.a.t.;.} { [ ! C k 0 8 8 0 k C ! { { { { { { Y = X X X X X               ",
"            X X X X X u e.a.8.} { / C 7 # X X . . . . X X # 7 C ] { { X.%.| 5 X X X X X             ",
"            X X X X u e.p.;.[ [ P 7 o X X X + % % % % + o . . o 3 P { $.&.&. .5 X o X X             ",
"          X X X X y e.y.*.{ ] B O X X @ 1 s f g h h g f s 1 @ X . + v %.&.&.&.| = X X X X           ",
"        X X X X > 4.p.*.{ / 8 X X + 2 f A A A A A A A A A A f 2 + X X j #.%.%.$.I + X X X X         ",
"        X X X X :.p.;.{ ] 0 X X % d h A A A A A A A A A h A A A d % X X w { { { { t X X X X         ",
"      X X X X y r.6.{ { k o X - f A A A A A A A A A S A A A A A A f : X X k { { { / * X X X X       ",
"      X X X X <.t.} { P + X % f A A A h A H E ^ ^ ( ( ( ^ W J S S H D ; X + P { { { B X X X X       ",
"      X X X , r.*.{ ] 3 . + d A h A A J ^ { { { { { { { { { X.X.{ W J V + . 3 / { { / * X X X       ",
"    X X X X N q.{ { C o X 2 A A h H ( { { { { { { { { X.O.%.%.&.&.$.[ E 9 X O C { { { r X X X X     ",
"    X X X o 3.*.{ { 7 . @ f A A E [ { { { { { { X.$.%.%.&.&.&.&.&.&.%.X.F @ X 7 { { { Y O X X X     ",
"    X X X , 5.} { ! # . 1 A A E { { { { X.O.$.%.&.&.&.&.&.&.&.&.&.&.&.&.O.e X # ! X.%...* X X X     ",
"    X X X i -.{ { C o X s A E { { X.$.%.&.&.&.&.&.&.&.&.&.&.&.%.&.%.%.&.&.Y o X C %.&.%.4 . X X     ",
"    X X . p *.{ { k X + f E X.$.&.&.&.&.&.&.&.&.&.&.&.&.&.%.$.X.X.{ { X.O.' # X v &.&.&.j . X X     ",
"  X X X X M } { $.j . % G O.&.&.&.&.&.&.&.&.&.&.&.&.&.%.O.X.{ { { { { { { ] : . j &.&.&.v X X X X   ",
"  X X X . n } $.&.j . ; ( &.&.&.&.&.&.%.&.&.&.&.&.&.%.X.{ { { { { { { { { / : . j &.&.&.c X X X X   ",
"  X o X X b O.&.&.j . ; o.&.&.&.&.&.&.&.&.%.&.&.&.$.{ { { { { { [ { { [ { [ : . j &.%.X.B X X X X   ",
"  X X X X x %.&.&.j X = #.&.%.&.&.&.&.&.&.&.&.&.$.{ { { { [ { { { { { { { / : . j %.{ { t . X X X   ",
"    X X X j &.&.&.v X & ..&.&.&.&.&.&.&.&.&.&.%.{ { { { { { { { { [ { { { ! # X z { { [ 0 X X X     ",
"    X X . 4 %.&.&.T O O T &.&.&.&.&.&.&.&.&.%.X.{ { { { { [ { { { { { { { C O X C { { [ 3 X X X     ",
"    X X X * ..&.&. .& . l &.&.&.&.%.&.&.&.&.$.{ { [ { { { { { { [ { { [ { r X # ! { { ~ $ X X X     ",
"    X X X O R &.&.%.q X *  .&.&.&.&.&.&.&.%.{ [ [ { [ { { [ [ { { { { { ! $ . 7 [ { { P O X X X     ",
"    X X X X l &.&.&.U O X c &.&.%.&.&.&.&.%.{ { { { { { { { { { { { { { k X O C { { { r X X X X     ",
"      X X X = ..&.&.#.6 X & _ &.&.&.&.&.&.$.{ { { { { { { [ { { { { { P # . 3 / { { ~ * X X X       ",
"      X X X X K &.&.&._ O X 5 ..&.&.&.&.&.O.[ { [ { { [ { { { { [ { ~ : X + P { { { B X X X X       ",
"      X X X . 5 ..&.&.&.v X X 6 ..&.&.&.&.O.{ { { { { { { { { { { ~ 3 X o k { { { ~ ; X X X X       ",
"        X X X O c &.&.&.#.w X X 5 _ &.&.&.$.{ { { [ { { { { { { P ; X X 0 / { { { t X X X X         ",
"        X X X X O R &.&.%.] 0 X X # c  .&.%.{ { { { { { { { ~ t # . X 0 / { { { C # X X X X         ",
"          X X X X =  .&.%.X.] k + . X & l R ` / / / / ~ C r $ X . + B / { { { Q * X X X X           ",
"            X X X X 5  .%.X.{ { P 3 o X . o # : : : : + o X . o 3 P { { { { ! : X X X X             ",
"            X X X X X 5 | X.{ { { ] C 7 & X X X X X . X X # 7 C ] { { { { Q : . X X X X             ",
"              X X X X X = I { { { { { X.| T v j q 0 0 k C ! { { { { { { P * X X X X X               ",
"                O X X X X # k ~ { { O.%.&.&.&.&.O.{ { { { { { { { { ~ t + X X X X X                 ",
"                  X X X X X X * B ' &.&.&.&.%.X.{ { { { { { { { ~ B ; X X X X X o                   ",
"                    X X X X X X X = l R ..#.X.{ { { { { ] ~ P r * X X X X X X X                     ",
"                        X X X X X X X O * 3 0 k k k k 0 3 & O X X X X X X X                         ",
"                          X X X X X X X X X X X X X . X X X X X X X X X X                           ",
"                              X X X X X X X X X X X X X X X X X X X X                               ",
"                                    X X X X X X X X X X X X X X                                     ",
"                                              X X X X                                               ",
"                                                                                                    "
};
