/* XPM */
static char *Ground_02_resized[] = {
/* columns rows colors chars-per-pixel */
"50 50 66 1 ",
"  c #120A0A",
". c #17100E",
"X c #18110E",
"o c #1B1512",
"O c #1D1915",
"+ c #1E1D1A",
"@ c #201B16",
"# c #221E1A",
"$ c #25221D",
"% c #29261F",
"& c #2B291F",
"* c #262421",
"= c #292723",
"- c #2B2925",
"; c #2E2C28",
": c #302D23",
"> c #302E2A",
", c #313027",
"< c #35342C",
"1 c #39392E",
"2 c #373530",
"3 c #393631",
"4 c #3C3B33",
"5 c #403D37",
"6 c #423F39",
"7 c #3E4032",
"8 c #444434",
"9 c #454A37",
"0 c #484837",
"q c #43403A",
"w c #49453F",
"e c #474B38",
"r c #484D39",
"t c #4C523C",
"y c #50553F",
"u c #4B4741",
"i c #4D4A43",
"p c #504D46",
"a c #534F48",
"s c #515640",
"d c #555A43",
"f c #585E46",
"g c #55514A",
"h c #5A564E",
"j c #5B584F",
"k c #605C53",
"l c #596047",
"z c #5E634A",
"x c #61674D",
"c c #62694E",
"v c #676D52",
"b c #686E53",
"n c #666158",
"m c #6B7255",
"M c #6F7658",
"N c #717759",
"B c #747C5C",
"V c #78815F",
"C c #7C8462",
"Z c #7F8865",
"A c #808965",
"S c #858F6A",
"D c #86906B",
"F c #89946D",
"G c #8C9870",
"H c #919C74",
/* pixels */
" o                                    X.          ",
":X108888e7988888888899888809888888880&.18888808888",
"x cGSSDDZFDDDDDDDDDDDDDDAFDFDDDFDDDDHy BGFDDDDDFDD",
"N rDVAAVCCCCVCZZZZZZZZZZVAVVVVVVVVVBV8 mAVVAAAAVVA",
"f@%zddyyyysyssdllzccczzzffdytttttrrrt%Xtyyyffllffl",
"r%X1809reeeeee9e9e999r9999eeeeee9rrrr$X8e099999999",
"t< ,1tyreertrrrrrrrrrrrreerrrrerrr9r8OXrt9etereeer",
"t7X&41dmzyee7eeerrtrrrrrerrrerrrrrr91Oo8mteeeyfyrr",
"77o$11<9xBNmzlste999999rrreeeeeerrr11o$<dMvmmngq77",
"<1$X111<,4eszvmMMMmvcxlfye7771111111<X$4277742221<",
"<1%.,11111<,,<<78ee98841<<1<<1111111<X%121<22233<1",
"17:.-711414471112<1<1<11711771111111,X%11727273371",
"$%$X@$%%%--,-:;:-,----%%%%$%$$O@OOoXoXo+O+++****%%",
"XXXXXXXXXXXXXXXXXXXXXXXXXXXX.XooO+OOOOOOoooo......",
"%%-=--=%%$$$$$$$$$%%***=%=-=-=&&--------====----&-",
"-------------------=----------,-;;;;;;;>;;;-----%-",
"33335353333333333334444444466566666666666665555333",
"qqqqqqqqqqqqqqqqqqqqqq66qqq66666666666q666666q66qq",
"qq666666q66666666666666666666666666666666666666666",
"6q666666666666666666666666666666666666666666666666",
"66666666666666666666666666666666666666666666666666",
"66666666666666666666666q66666666666666666666666666",
"666666q6666666666666666qqqq66666666666666666666666",
"6666666666666666666666642>466666q66666666666666666",
"66666666666666666666666>==>66666666666666666666666",
"6666666666q6666666666q3----36666666666666666666666",
"66666666q66q666666666q3;=->6666666666666666666q666",
"66q6666q3;-3q6666666666644qq6666666666666666666666",
"66666665;--3q66666666666qwqq666666656666q666666666",
"666666qq3>>6q66666666666q34q66666q3->6666666666666",
"6666q635qqq666666666666q3--3q6666q3-36666666666666",
"666q5;--3q666666666666666>266666666666666666666666",
"666q2---;q5q55q56666666666qqqq66666qwqqqqqqq6qqq66",
"666q>*-*>qqqqqqq666666666663>;;;;;;>>>3q66q>->qq66",
"666q52>25qq5q55q66666666662------------5qq3*-->q66",
"6666qqqqq55q5qq56666666662*-----------*>q65---;q66",
"666665qqq5qqqq5q66666666q;--------------6665>23q66",
"66q56qqqqq555qq56666665i2---------------3q66qqqq66",
"666qq63335q5q5qq566565iu*--------------*>q6666q666",
"66q5>----;3w555555555ah------------------6qqq66666",
"666>=------whwwiighknn>------------------;2>3q6666",
"662=-------=whhhhgpw3;--------------*--------3q666",
"q2=---------**==****---------------*O+------->6qqq",
"2------------;---------------------***--------;>>>",
"=------------------------------------------------*",
"=------------;-*----------------------------------",
"------------=*=+*---------------------------------",
"----=------*++**----------------------------------",
"-----------++O*-----------------------------------",
"---=-------=++------------------------------------"
};
