/* XPM */
static char *_8276e75249e4204a4753af678f3131c7hlcOphUfQrdsLOm[] = {
/* columns rows colors chars-per-pixel */
"50 50 4 1 ",
"  c #D5CC9E",
". c #D7D1A1",
"X c #D9D3A2",
"o c #D9D4A3",
/* pixels */
"          Xoooooooooooo.                   Xoooo. ",
"           Xoooooooooooo.                   Xoooo.",
".           Xoooooooooooo.                   Xoooo",
"o.           Xoooooooooooo.                   oooo",
"oo.           Xoooooooooooo.                   Xoo",
"ooo.           Xoooooooooooo.                   Xo",
"oooo.           Xoooooooooooo.                   X",
"Xoooo.           Xoooooooooooo.                   ",
" Xoooo.           Xoooooooooooo.                  ",
"  Xoooo.           Xoooooooooooo.                 ",
"   ooooo.           Xoooooooooooo.                ",
"    Xoooo.           Xoooooooooooo.               ",
"     Xoooo.           Xoooooooooooo.              ",
"      Xoooo.           Xoooooooooooo.             ",
"       ooooo.           Xoooooooooooo.            ",
"        Xoooo.           Xoooooooooooo.           ",
"         Xoooo.           Xoooooooooooo.          ",
"          ooooo.           Xoooooooooooo.         ",
"           Xoooo.           Xoooooooooooo.        ",
"            Xoooo.           Xoooooooooooo.       ",
"             Xoooo.           Xoooooooooooo.      ",
"              ooooo.           Xoooooooooooo.     ",
"               Xoooo.           Xoooooooooooo.    ",
"                Xoooo.           Xoooooooooooo.   ",
"                 Xoooo.           Xoooooooooooo.  ",
"                  Xoooo.           Xoooooooooooo. ",
"                   Xoooo.           Xoooooooooooo.",
".                   Xoooo.           Xoooooooooooo",
"o.                   ooooo.           Xooooooooooo",
"oo.                   Xoooo.           Xoooooooooo",
"ooo.                   Xoooo.           Xooooooooo",
"oooo.                   Xoooo.           Xoooooooo",
"ooooo.                   Xoooo.           Xooooooo",
"oooooo.                   Xoooo.           Xoooooo",
"ooooooo.                   Xoooo.           Xooooo",
"oooooooo.                   ooooo.           Xoooo",
"ooooooooo.                   Xoooo.           Xooo",
"oooooooooo.                   Xoooo.           Xoo",
"ooooooooooo.                   Xoooo.           Xo",
"oooooooooooo.                   ooooo.           X",
"Xoooooooooooo.                   Xoooo.           ",
" Xoooooooooooo.                   Xoooo.          ",
"  Xoooooooooooo.                   ooooo.         ",
"   Xoooooooooooo.                   Xoooo.        ",
"    Xoooooooooooo.                   Xoooo.       ",
"     Xoooooooooooo.                   Xoooo.      ",
"      Xoooooooooooo.                   ooooo.     ",
"       Xoooooooooooo.                   Xoooo.    ",
"        Xoooooooooooo.                   Xoooo.   ",
"         Xoooooooooooo.                   Xoooo.  "
};
