/* XPM */
static char *Walk_8_resized[] = {
/* columns rows colors chars-per-pixel */
"50 50 177 2 ",
"   c None",
".  c #040303",
"X  c #0A0407",
"o  c #0C0609",
"O  c #0F0A0B",
"+  c #10060A",
"@  c #1D060C",
"#  c #14090D",
"$  c #180A0F",
"%  c #1A120F",
"&  c #160B10",
"*  c #1C0C12",
"=  c #1C1212",
"-  c #1F1E1F",
";  c #220C13",
":  c #2C0B14",
">  c #260F18",
",  c #280F19",
"<  c #320C16",
"1  c #350D18",
"2  c #3B0E1A",
"3  c #221314",
"4  c #251912",
"5  c #251219",
"6  c #2B131B",
"7  c #2B191A",
"8  c #291516",
"9  c #33131E",
"0  c #3B131D",
"q  c #331C1D",
"w  c #3B1A1E",
"e  c #33211A",
"r  c #3B241F",
"t  c #382519",
"y  c #2C1B23",
"u  c #341421",
"i  c #3B1624",
"p  c #301E25",
"a  c #391F23",
"s  c #1D2035",
"d  c #3C2323",
"f  c #39282B",
"g  c #3C3235",
"h  c #383338",
"j  c #460F1C",
"k  c #42131D",
"l  c #4A111F",
"z  c #432B1D",
"x  c #482E1F",
"c  c #421726",
"v  c #4B1424",
"b  c #431C24",
"n  c #4E1A24",
"m  c #4E1728",
"M  c #531122",
"N  c #5C1425",
"B  c #521728",
"V  c #5D172A",
"C  c #621427",
"Z  c #63172A",
"A  c #6E162C",
"S  c #73172D",
"D  c #78182F",
"F  c #412425",
"G  c #462B23",
"H  c #44252A",
"J  c #452829",
"K  c #4B2C2A",
"L  c #4A2A27",
"P  c #532F2F",
"I  c #4C3022",
"U  c #543624",
"Y  c #5B3A26",
"T  c #553428",
"R  c #4F2B31",
"E  c #502B31",
"W  c #4B3B3C",
"Q  c #493639",
"!  c #553333",
"~  c #5A3336",
"^  c #5D3239",
"/  c #553A38",
"(  c #613C2B",
")  c #663A36",
"_  c #61363B",
"`  c #633A39",
"'  c #6C3F3E",
"]  c #683E32",
"[  c #4E403E",
"{  c #6C442D",
"}  c #65402A",
"|  c #72482E",
" . c #65423D",
".. c #714434",
"X. c #7A4C33",
"o. c #7B4A38",
"O. c #72423C",
"+. c #6D3D41",
"@. c #284863",
"#. c #48454D",
"$. c #544442",
"%. c #5B4644",
"&. c #5F4A44",
"*. c #5E4D4A",
"=. c #595457",
"-. c #654C44",
";. c #754642",
":. c #7A4444",
">. c #7B4748",
",. c #774945",
"<. c #6C5346",
"1. c #68524B",
"2. c #7B5D4D",
"3. c #695656",
"4. c #735D5B",
"5. c #79625F",
"6. c #586579",
"7. c #6D6264",
"8. c #7B6461",
"9. c #756A6B",
"0. c #7A6B6B",
"q. c #736367",
"w. c #78787E",
"e. c #865437",
"r. c #925B3B",
"t. c #9D633D",
"y. c #A0643E",
"u. c #844B4D",
"i. c #825249",
"p. c #985D41",
"a. c #8B5051",
"s. c #8B5950",
"d. c #905353",
"f. c #925E53",
"g. c #8E6A5A",
"h. c #9A6B5C",
"j. c #AD6C44",
"k. c #A1675B",
"l. c #B0655D",
"z. c #826965",
"x. c #856C68",
"c. c #9B7661",
"v. c #827B7B",
"b. c #AB7B69",
"n. c #BA8973",
"m. c #C1806F",
"M. c #C18975",
"N. c #D58E7B",
"B. c #D3937D",
"V. c #697483",
"C. c #787C81",
"Z. c #898281",
"A. c #928787",
"S. c #948B8A",
"D. c #9E9493",
"F. c #A49998",
"G. c #8194A6",
"H. c #9CA6AE",
"J. c #CC9C85",
"K. c #D19F86",
"L. c #E69E88",
"P. c #D6A387",
"I. c #FBBB9C",
"U. c #F5B899",
"Y. c #C4BCBA",
"T. c #FFC09F",
"R. c #CAC0BE",
"E. c #FFC3A2",
"W. c #F9CAB2",
"Q. c #E7C8B9",
"!. c #B8BEC6",
"~. c #CBC3C1",
"^. c #D8CFCC",
"/. c #C5CCD5",
"(. c #DED4D1",
"). c #FFE9DC",
"_. c #F5F8FB",
/* pixels */
"                                                                                                    ",
"                                                                                                    ",
"                                                                                                    ",
"                                                                                                    ",
"                                                                                                    ",
"                                                                                                    ",
"                                              * 2 2 2 :                                             ",
"                                      : : v N C S S D C N N N l : : ;                               ",
"                                < M v A S S S S S S S S S S D S S A C M 1 @                         ",
"                            1 M A S S S S S S S S S S S S S S S S S N c 2 v ;                       ",
"                          M A S S S S S S S S S S S S S S S V c u Q A.Z.; >                         ",
"                          N S S S A V m A S S S S S S S V v u g v.Z.^.^.W *                         ",
"                          < S S B i i i Z S S S S S S Z i y 7.R.S.$.0.(.S.=                         ",
"                            k v i i i i Z S S S S S V i Q D.D.q.3.[ -.~.Y.                          ",
"                              & u i i m A S S S S V i y 9.0.1.$.Q 4.5.S.Y.-                         ",
"                                * i m A S S S S Z i 6 Q 4.$.-.f.h.1.z.9.S.                          ",
"                                * B A S S S S A c p 3.8.-. .g.-.<.*.0.0.=.                          ",
"                                M D S S S S S Z u W z.%.^ [ Q / <.*.4.F.=.                          ",
"                              : A S S S S S A c 6 8.3.;.n.s.) l.n.$.5.w.                            ",
"                              M D S S S S S Z u f 8./ N.M.,.#./ n.-.[ g                             ",
"                            l S S S S S S S V u $.8.` K.9.G.6.s K.-.                                ",
"                            M S S S S S S A c 6 $.%.k.E.Q._.V.@.K.<.                                ",
"                            v D S S S S S Z c 5 %.%.k.E.E.).H.@.K.c.                                ",
"                            M D S A S S S B i u W $.k.E.E.E.W.J.U.T.2.                              ",
"                            2 A S S S S S B i i 5 / B.E.T.E.T.E.E.E.g.                              ",
"                            @ A S S S C V c i i 6 :.L.E.E.T.E.E.E.U.<.                              ",
"                            & i V S C q.=.u i i i 9 :.B.I.E.E.E.E.P.=                               ",
"                                * i 9 w./.=.u 9 9 6 6 F i.m.N.U.I.h.                                ",
"                                    # & C.!.y a d d 6 > 6 , P :.:.d                                 ",
"                                          h y u k w H L q 6 > 6 6 &                                 ",
"                                          & 6 M S B , 0 F K T ; u $                                 ",
"                                          o = M D l 9 B C n +.b : #                                 ",
"                                            X M D v 5 c A A n ) u                                   ",
"                                              M C M $ c A S A n K                                   ",
"                                              0 L 6 $ i Z S S S j @                                 ",
"                                              ` a.~ a 6 c V A S S <                                 ",
"                                            . +.a._ H ; u 6 i v C ;                                 ",
"              3 d Y 4                         K a.+.H 7 J J J H L $               o U } x           ",
"                e G ( I                       7 a.u.H = 7 6 6 q k :             7 } Y Y             ",
"                    t ( { z e                 O ! :.9 + 6 u u c Z N @       e T | U                 ",
"                        r o.r.{ { r % % % 4 G e $ > 9 3 K d y * 3 9 8 d Y e.y.|                     ",
"                          = K Y p.r.t.t.y.y.p.T & , u ; ) ;.o.o.X.r.y.j.r.X.z                       ",
"                                7 7 ( ..| ..K #   5 6 q a J { e.t.r.T I 4                           ",
"                                                + E ~ _ >.>.J 5 d d +.~                             ",
"                                                + E ^ :.d.d.L R ^ ^ _ ~                             ",
"                                                  = d E _ ` * F H H 5 3                             ",
"                                                  $ 6 +         . & 9 +                             ",
"                                                  > i #           ; i >                             ",
"                                                X u ,             o 9 ,                             ",
"                                                  & X               o $                             "
};
