/* XPM */
static char *Walk_5_resized[] = {
/* columns rows colors chars-per-pixel */
"50 50 176 2 ",
"   c None",
".  c #080507",
"X  c #0E0609",
"o  c #12070B",
"O  c #13090D",
"+  c #16100D",
"@  c #160B11",
"#  c #1C0B12",
"$  c #1D1214",
"%  c #230D14",
"&  c #2B0B14",
"*  c #2E0F19",
"=  c #250E18",
"-  c #360E19",
";  c #3C0E1A",
":  c #340C17",
">  c #241416",
",  c #2A1C15",
"<  c #251219",
"1  c #2C121B",
"2  c #261A1B",
"3  c #2C181A",
"4  c #2A1114",
"5  c #33121E",
"6  c #321B1E",
"7  c #3B121F",
"8  c #302016",
"9  c #342218",
"0  c #3E271E",
"q  c #3E291B",
"w  c #341521",
"e  c #3A1624",
"r  c #331C22",
"t  c #3B1E21",
"y  c #381D28",
"u  c #3B2123",
"i  c #3A242C",
"p  c #332025",
"a  c #3F3135",
"s  c #3A3439",
"d  c #470F1C",
"f  c #45101D",
"g  c #4B111F",
"h  c #412A1D",
"j  c #421524",
"k  c #4B1423",
"l  c #4F1728",
"z  c #551223",
"x  c #5E1326",
"c  c #541728",
"v  c #5B1629",
"b  c #561928",
"n  c #651226",
"m  c #65162A",
"M  c #6C172B",
"N  c #65182C",
"B  c #73172D",
"V  c #74182E",
"C  c #432427",
"Z  c #452A23",
"A  c #4A2D24",
"S  c #47292A",
"D  c #4B2B2B",
"F  c #56262C",
"G  c #48352C",
"H  c #44342A",
"J  c #543624",
"K  c #5C3A27",
"L  c #58352C",
"P  c #5E3A2A",
"I  c #57322E",
"U  c #402D34",
"Y  c #542D33",
"T  c #582F36",
"R  c #493739",
"E  c #4B3B3A",
"W  c #483934",
"Q  c #5B3336",
"!  c #5C3239",
"~  c #593836",
"^  c #643F2B",
"/  c #663E30",
"(  c #633B3C",
")  c #53433F",
"_  c #66412A",
"`  c #6B432D",
"'  c #73492E",
"]  c #694031",
"[  c #61433F",
"{  c #71413B",
"}  c #7C4E31",
"|  c #7F5033",
" . c #2A314B",
".. c #533B41",
"X. c #6C3D40",
"o. c #2D526E",
"O. c #5A4847",
"+. c #5D484C",
"@. c #604341",
"#. c #6F4041",
"$. c #634B46",
"%. c #754245",
"&. c #7E484A",
"*. c #774C46",
"=. c #63504E",
"-. c #68504D",
";. c #7C554C",
":. c #725349",
">. c #6A5453",
",. c #6D5956",
"<. c #6F5F5E",
"1. c #705855",
"2. c #735D5A",
"3. c #6C605F",
"4. c #77615E",
"5. c #525C6B",
"6. c #646060",
"7. c #6D6868",
"8. c #7A6664",
"9. c #746C6D",
"0. c #746362",
"q. c #7D7475",
"w. c #8D563C",
"e. c #8F5A39",
"r. c #965C3D",
"t. c #99603C",
"y. c #834B4C",
"u. c #90564E",
"i. c #8C5151",
"p. c #915453",
"a. c #995B53",
"s. c #9D6042",
"d. c #896657",
"f. c #936156",
"g. c #9D685B",
"h. c #96695B",
"j. c #A36641",
"k. c #A66840",
"l. c #AE6C44",
"z. c #806F6D",
"x. c #8A7E7D",
"c. c #847A7B",
"v. c #AE7667",
"b. c #A07A65",
"n. c #BD786A",
"m. c #A8806A",
"M. c #B38772",
"N. c #BF927B",
"B. c #CD8D79",
"V. c #CA8A77",
"C. c #D8927E",
"Z. c #8A8588",
"A. c #958A8A",
"S. c #909098",
"D. c #9F9694",
"F. c #A99D9B",
"G. c #8D98A6",
"H. c #9A9EA5",
"J. c #AAA4A8",
"K. c #B8AFAE",
"L. c #B3A9A7",
"P. c #A6ABB3",
"I. c #B0B7BE",
"U. c #D79E86",
"Y. c #DD9B85",
"T. c #DEA98C",
"R. c #DBA78C",
"E. c #EDAC91",
"W. c #FCBD9D",
"Q. c #C2BAB8",
"!. c #C8C1BF",
"~. c #FFC3A2",
"^. c #FFC9AA",
"/. c #DFD5D2",
"(. c #E6D2C8",
"). c #FFE6D8",
/* pixels */
"                                                                                                    ",
"                                                                                                    ",
"                                                                                                    ",
"                                                                                                    ",
"                                                                                                    ",
"                                                                                                    ",
"                                                                                                    ",
"                                      % & k x x ; & & %                                             ",
"                                # : g x B B B B V B B n k g %                                       ",
"                            % g M B V B B B B B B B B V V V n g -                                   ",
"                          ; m B B B B B B B B B B B B N v c ~ 1 ;                                   ",
"                        & M B B B M M B B B B B B M c 5 a A.!.a #                                   ",
"                          x V M c j c V B B B B M e w 9.D.x./.9.@                                   ",
"                          g M k e e c V B B B M l i q.J.0.E F.K.                                    ",
"                            * e e e c V B B B c y c.m.6.O.$.A.Q.                                    ",
"                              < e l M B B B v w s 3.+.[ ( z.8.J.                                    ",
"                              # j M B B B M e i >.$.;.f.d.2.8.9.                                    ",
"                              : N B B B B v r 0.1.~ $.) E 2.z.7.                                    ",
"                              z B B B B B j E 2.( :.E *.d.>.m.5.                                    ",
"                            & M B B B B m w O.-.v.B.{ a.h.>.7.                                      ",
"                            z V B B B B c p 2.O.V.>.5.s M.H                                         ",
"                          & M V B B B B j r ,.;.R.P.G. .N.a                                         ",
"                          & M B B B B M j p =.f.~.).I.o.N.G                                         ",
"                          & M V B B B v e y =.f.W.^.(.9.T.b.                                        ",
"                          * M V B B V c e w E g.~.~.~.W.~.T.                                        ",
"                            z V B B B l e 5 D Y.~.~.~.~.~.T.                                        ",
"                            k V B B N i w e C n.W.~.~.~.~.m.                                        ",
"                            # e m c +.H.i e w C g.E.W.~.~.d.                                        ",
"                                = 5 i J.S.p < = < ~ u.C.B.G                                         ",
"                                    X s Z.2 C D t % 1 t p                                           ",
"                                        $ < f f 6 C r 1 5 o                                         ",
"                                        O 1 n N % 5 C C 3 o                                         ",
"                                          < g B ; 7 x F S                                           ",
"                                          @ 5 B f 1 N n <                                           ",
"                                            % M f # l B z                                           ",
"                                            o 6 Q u = k g o                                         ",
"                        Z _ +               2 &.p.( @ # # .                   J ' h                 ",
"                        > u _ q               Z u.i.6 6 u O                 J ^ q                   ",
"                            0 ` K 0           o Q y.u > , .             A ` K                       ",
"                                ] e.| _ 9 9 8 A A 5 1 1 D D , > , h / r.t.J                         ",
"                                  u / w.j.l.l.s.Z = w 1 I { w.r.j.k.t._ 9                           ",
"                                      $ Z L L S < 3 1 D D D L | ' 8 ,                               ",
"                                              r u D ! %.p.#.o                                       ",
"                                              C Y u ! ( i.%.                                        ",
"                                              r T r T ! &.Q                                         ",
"                                                1 6 D ! T 6                                         ",
"                                                1 = r r >                                           ",
"                                              5 w # X * =                                           ",
"                                            X = o     1 #                                           ",
"                                                      O                                             "
};
