/* XPM */
static char *Walk_4_resized[] = {
/* columns rows colors chars-per-pixel */
"50 50 174 2 ",
"   c None",
".  c #090507",
"X  c #0D0708",
"o  c #0D0909",
"O  c #060507",
"+  c #12070B",
"@  c #15090E",
"#  c #180B0F",
"$  c #1B0C12",
"%  c #150B11",
"&  c #1C1213",
"*  c #220D15",
"=  c #2C0B14",
"-  c #260F18",
";  c #290F19",
":  c #350E16",
">  c #380C17",
",  c #350E18",
"<  c #3C0E1A",
"1  c #241416",
"2  c #2F1F17",
"3  c #26131A",
"4  c #2C121C",
"5  c #261818",
"6  c #2D191C",
"7  c #33121E",
"8  c #3B111D",
"9  c #331B1E",
"0  c #302017",
"q  c #39241B",
"w  c #39251A",
"e  c #2F1720",
"r  c #351521",
"t  c #3B1624",
"y  c #351C21",
"u  c #391E26",
"i  c #361E28",
"p  c #282629",
"a  c #2E2024",
"s  c #372120",
"d  c #3C2223",
"f  c #39252E",
"g  c #39282B",
"h  c #3E2B31",
"j  c #373237",
"k  c #490F1D",
"l  c #46101E",
"z  c #4A111E",
"x  c #422B1D",
"c  c #441625",
"v  c #4A1524",
"b  c #451D23",
"n  c #4C1728",
"m  c #541323",
"M  c #5A1224",
"N  c #541728",
"B  c #5C172A",
"V  c #631427",
"C  c #631629",
"Z  c #6D172C",
"A  c #73172D",
"S  c #74182E",
"D  c #422525",
"F  c #4D2C2B",
"G  c #442629",
"H  c #512F27",
"J  c #512429",
"K  c #512F2E",
"L  c #4B3020",
"P  c #533525",
"I  c #53322B",
"U  c #5A362B",
"Y  c #5C3929",
"T  c #4F2B31",
"R  c #512C32",
"E  c #463B3A",
"W  c #4C3A3B",
"Q  c #593335",
"!  c #5B323A",
"~  c #543C36",
"^  c #633D2C",
"/  c #6B3E3D",
"(  c #683C38",
")  c #5E403D",
"_  c #55433D",
"`  c #67402D",
"'  c #6C442C",
"]  c #61413E",
"[  c #69463F",
"{  c #684737",
"}  c #7B4D32",
"|  c #71413B",
" . c #463C43",
".. c #6F3F41",
"X. c #554443",
"o. c #5B4743",
"O. c #5D4B49",
"+. c #594847",
"@. c #5E5557",
"#. c #6E4040",
"$. c #664C49",
"%. c #7A4647",
"&. c #62504E",
"*. c #71584E",
"=. c #79504D",
"-. c #6A5653",
";. c #605558",
":. c #615A5B",
">. c #675655",
",. c #745E5B",
"<. c #7A5C50",
"1. c #78605D",
"2. c #47546B",
"3. c #595C6A",
"4. c #606063",
"5. c #686061",
"6. c #7F6763",
"7. c #786867",
"8. c #716769",
"9. c #7C6D6C",
"0. c #7C7373",
"q. c #834F3C",
"w. c #835234",
"e. c #8C563C",
"r. c #885536",
"t. c #925A3D",
"y. c #9D623E",
"u. c #814A4B",
"i. c #8A4F51",
"p. c #8B5050",
"a. c #885B51",
"s. c #945D53",
"d. c #9F6340",
"f. c #8B6759",
"g. c #976358",
"h. c #94715E",
"j. c #A86942",
"k. c #A5645A",
"l. c #816865",
"z. c #92766F",
"x. c #847574",
"c. c #8B7E7D",
"v. c #AC7867",
"b. c #B77667",
"n. c #B28871",
"m. c #BB8B74",
"M. c #C58070",
"N. c #C2947A",
"B. c #D4947E",
"V. c #556981",
"C. c #7A8C9D",
"Z. c #978A89",
"A. c #8B8C93",
"S. c #979190",
"D. c #A49B9A",
"F. c #8999A3",
"G. c #999BA3",
"H. c #9DA1A8",
"J. c #B5AEAC",
"K. c #BAAEAD",
"L. c #BEB6B4",
"P. c #DAA58A",
"I. c #EBA98F",
"U. c #E8A68C",
"Y. c #F0AB91",
"T. c #F8B598",
"R. c #FABD9D",
"E. c #FFC3A2",
"W. c #F4C2A7",
"Q. c #EEC6B1",
"!. c #CBC3C0",
"~. c #DCD3D0",
"^. c #FFE3D3",
"/. c #EEEFF1",
/* pixels */
"                                                                                                    ",
"                                                                                                    ",
"                                                                                                    ",
"                                                                                                    ",
"                                                                                                    ",
"                                                                                                    ",
"                                                                                                    ",
"                                        # #                                                         ",
"                                  * , l V V M , , , *                                               ",
"                            = < M V A A S A A A A A V M m =                                         ",
"                        , B Z S A A A A A A A A A A S S Z M l <                                     ",
"                    = m Z S S S A A A A A A A A A Z N v ! :.* ,                                     ",
"                    < A A A Z C C A A A A A A Z B 8 f 5.L.!.G $                                     ",
"                    * V A C n t n A A A A A Z n ; @.J.x.0.~.8.%                                     ",
"                      l B c t t n A A A A A N i 0.D.x.O.X.K.J.                                      ",
"                        $ r t t B A A A A N r ;.c.>.X.+.,.S.J.                                      ",
"                          & t N A A A A B i a >.O.) g.$.f.7.S.                                      ",
"                          * N A A A A A c G 1.-.[ f.<.$.7.7.@.                                      ",
"                          v A A A A A B r -.-.Q W W ) _ 1.Z.4.                                      ",
"                        = Z A A A A A c f l.~ v.a.( b.*.1.0.                                        ",
"                        l A A A A A C r W >.g.P.*. .f.f.X.E                                         ",
"                      , Z A A A A A B e >.$.v.z.C.2.X.m.o                                           ",
"                      > A A A A A A n 4 &.) U.Q./.V.3.m.                                            ",
"                      > A A A A A Z c 3 &...I.E.^.F.@.P._                                           ",
"                      < A A A A S B t e X.( I.E.E.W.P.E.n.                                          ",
"                      * V A A A S B t t 3 g.R.E.E.E.E.E.N.                                          ",
"                        M A A A Z t t t y k.T.E.E.E.E.R.z.                                          ",
"                        ; N Z C ! A.f r t D s.U.E.E.E.R.{                                           ",
"                          % e r f G.G.i 7 - ; K s.M.Y.m.                                            ",
"                              % % p H.j q G y 3 $ b F d                                             ",
"                                    & e > l b G d 4 7 4                                             ",
"                                      3 M A v < b Q d 3                                             ",
"                                      % B S 7 8 Z J %.9                                             ",
"                                        M B * N A V J s                                             ",
"                                        : 8 $ C A A m 1                                             ",
"                                      T / 6 $ v Z A A k                                             ",
"                                      ..u.Q 3 t c B Z M                                             ",
"            1 0                     O / u.! 5 6 9 6 9 7 O               w                           ",
"            s ^ L                     D i.( 6 D D G D 9             2 ` ' w                         ",
"              & P ' x                 6 u...% * ; 7 v M =         P ' x                             ",
"                  q ' } P d         5 # 1 9 * y 9 6 7 8 = & w ` r.Y                                 ",
"                    5 U } j.} } } } e.P * r 4 I | U I Y } t.y.t.P                                   ",
"                        & D Y e.d.p.' 1 . * 3 s F q.j.j.w.' x                                       ",
"                              & & & &   1 R R D 6 y D I / Q                                         ",
"                                        1 ! ! ! y R ! %.i...                                        ",
"                                          y R R s 6 T R d 9                                         ",
"                                          * $ .     . # 4 @                                         ",
"                                          7 -         + r 4                                         ",
"                                        # r +           ; 4                                         ",
"                                        + #             . #                                         "
};
