/* XPM */
static char *Walk_7_resized[] = {
/* columns rows colors chars-per-pixel */
"50 50 183 2 ",
"   c None",
".  c #050506",
"X  c #0A0406",
"o  c #060608",
"O  c #0F0609",
"+  c #14070B",
"@  c #1A060C",
"#  c #150A0E",
"$  c #1A0B0F",
"%  c #160D11",
"&  c #1C0C11",
"*  c #1D1017",
"=  c #1E1118",
"-  c #26070F",
";  c #240C14",
":  c #2A0C14",
">  c #260F18",
",  c #2A0F19",
"<  c #350D18",
"1  c #3D0F1B",
"2  c #330F17",
"3  c #251316",
"4  c #261913",
"5  c #2B1D15",
"6  c #25141A",
"7  c #2B131B",
"8  c #251D18",
"9  c #2C1A1A",
"0  c #281717",
"q  c #31121E",
"w  c #3B131D",
"e  c #341C1D",
"r  c #35211C",
"t  c #3A231E",
"y  c #372419",
"u  c #351421",
"i  c #3B1624",
"p  c #351C22",
"a  c #3B1D25",
"s  c #352123",
"d  c #3C2323",
"f  c #32242B",
"g  c #460E1C",
"h  c #45111E",
"j  c #48111F",
"k  c #472E1F",
"l  c #431625",
"z  c #4C1424",
"x  c #401F22",
"c  c #4E1A29",
"v  c #541424",
"b  c #5C1224",
"n  c #521728",
"m  c #5C172A",
"M  c #621326",
"N  c #651629",
"B  c #6C162B",
"V  c #73172D",
"C  c #72182E",
"Z  c #432626",
"A  c #442529",
"S  c #462829",
"D  c #4C2A2D",
"F  c #532B2E",
"G  c #54262B",
"H  c #4E3123",
"J  c #413129",
"K  c #523424",
"L  c #5C3B26",
"P  c #59352D",
"I  c #593729",
"U  c #4E2A30",
"Y  c #542D34",
"T  c #5E2D3A",
"R  c #453535",
"E  c #433A3D",
"W  c #4A3C3B",
"Q  c #4A3735",
"!  c #5B3434",
"~  c #5C3238",
"^  c #553E3C",
"/  c #553131",
"(  c #633E2B",
")  c #62353C",
"_  c #6D3F3D",
"`  c #603937",
"'  c #5A453B",
"]  c #57443C",
"[  c #6B432D",
"{  c #73492E",
"}  c #6D4233",
"|  c #66433F",
" . c #724632",
".. c #7B4D31",
"X. c #74413D",
"o. c #784837",
"O. c #423A41",
"+. c #713F43",
"@. c #494649",
"#. c #534344",
"$. c #5B4442",
"%. c #584849",
"&. c #4B565F",
"*. c #575255",
"=. c #6F4040",
"-. c #654C45",
";. c #604D4C",
":. c #6D4B4B",
">. c #754242",
",. c #7A4C45",
"<. c #794947",
"1. c #6A5043",
"2. c #735249",
"3. c #695452",
"4. c #6C5A5A",
"5. c #6E5957",
"6. c #725C59",
"7. c #7A5D51",
"8. c #74605E",
"9. c #404C63",
"0. c #4A5164",
"q. c #445973",
"w. c #6B5F67",
"e. c #6A6466",
"r. c #766564",
"t. c #7D6562",
"y. c #7C6F6E",
"u. c #706D74",
"i. c #84503A",
"p. c #8A5638",
"a. c #925C39",
"s. c #9C613E",
"d. c #A2663F",
"f. c #844C4D",
"g. c #884E4F",
"h. c #81534A",
"j. c #8B524A",
"k. c #8A4F50",
"l. c #8E5252",
"z. c #915454",
"x. c #925C52",
"c. c #9F6143",
"v. c #846155",
"b. c #9C6459",
"n. c #906D5B",
"m. c #A16442",
"M. c #AC6A45",
"N. c #B26F45",
"B. c #A26A5D",
"V. c #836A66",
"C. c #9B7664",
"Z. c #817676",
"A. c #AD7364",
"S. c #BA7D6C",
"D. c #C5796C",
"F. c #C58C77",
"G. c #D3917C",
"H. c #6F8897",
"J. c #7F92A4",
"K. c #8F8586",
"L. c #938A89",
"P. c #9B9291",
"I. c #A69C9B",
"U. c #A09593",
"Y. c #B8B1AF",
"T. c #CB9A82",
"R. c #D19E83",
"E. c #E09F87",
"W. c #D5A286",
"Q. c #E8A28A",
"!. c #E0A98C",
"~. c #EFB496",
"^. c #FEBF9E",
"/. c #C8BEBC",
"(. c #E9BFA9",
"). c #FFC3A2",
"_. c #FFCBAD",
"`. c #D3CAC8",
"'. c #C4CBD3",
"]. c #E1CBC1",
"[. c #EAE1DE",
"{. c #FBEAE1",
"}. c #ECEFF2",
/* pixels */
"                                                                                                    ",
"                                                                                                    ",
"                                                                                                    ",
"                                                                                                    ",
"                                                                                                    ",
"                                + ; j j j : + @ +                                                   ",
"                          : < h M N V V V B N N N j < <                                             ",
"                    ; z v N V V V V V V V V V V V V V V b z :                                       ",
"                & g N V C V V V V V V V V V V V V B B M c w h <                                     ",
"              ; M V V V C C V V V V V V V V V B v i a 4.Y.O., +                                     ",
"              ; N V V B N c m V V V V V V V v l p *.K.U.[.L.6                                       ",
"                j V B l i i n V V V V V B m u f K./.r.#.I.`.E                                       ",
"                  j i i i i c V V V V V m i #.I.L.4.%.#.Z.[.e.                                      ",
"                    > i i l B C V V V m i f y.r.;.] ] V.8./.e.                                      ",
"                      7 l N C C V C N i 6 W 6.$.=.A.2.t.6.P.@.                                      ",
"                      w N C C C V C z p 3.r.+.1.v.-.] t.6.Z.                                        ",
"                    : B V V V V V B u R t.$.` ] E $.' 7.y.L.                                        ",
"                    j V V V V V C n 7 6.3.<.F.,.X.D.8.5.y.*.                                        ",
"                  : M V V V V V B i f 8.^ G.S.:.O.h.C.%.#.                                          ",
"                  b V V V V V V N q W t.=.G.e.J.9.E W.8                                             ",
"                @ N V V V C V V n u W ;.x.^.].}.q.0.R.8                                             ",
"                @ N V V V V V B l q Q %.b.)._.{.H.&.W.'                                             ",
"                @ M V V V C C N i u R %.b.).)._.).I.).W.                                            ",
"                  v V V C C C N i i 6 Q F.).).).^.^.).~.J                                           ",
"                  1 V V V V b z i i 7 X.Q.).).).).^.).R.                                            ",
"                  ; n B V T w.i i i i p j.E.^.).).).).n.                                            ",
"                    % q z @.'.u.u i i q 7 D B.G.Q.^.~.1.                                            ",
"                        O % *.'.@.7 e p 7 ; q e o.b.,.                                              ",
"                              @.f ; x a S Z 9 7 7 7 6                                               ",
"                              X 6 g B N w h A A 7 , q X                                             ",
"                                & 1 V N < z b G ! < >                                               ",
"                                % 3 b V w , V M F ! $                                               ",
"                                  = j V v ; z V b Y a                                               ",
"                                  * 6 B m 7 9 z N v :                                               ",
"                5     o o o o o o # + i , U +.3 3 w w $ o o o o o o o o o o     5 5                 ",
"              e L ( 5                 & D +.l._ Z S S 4                       H ..[                 ",
"                  t [ I               @ a Y >.k./ # ; @                   y [ [ 5                   ",
"                    4 I  .{ t 5       - , 6 A A e & Z $ %         % 4 H .. .k                       ",
"                        d  .p.m.{ ( L L ( i.t ; u 7 ! X.P d d K [ i.s.s.{                           ",
"                            0 I } s.M.M.m.X.p > 9 , e / o.m.M.N.a.p.K y                             ",
"                                  9 e r r s D U D e 9 S d t K K                                     ",
"                                        a ~ ) k.l.f.S ~ d                                           ",
"                                        A ~ +.l.l.l.S Y D                                           ",
"                                        A ) f.l.l.<.p U 9                                           ",
"                                        A ) f.z.z._ # 7                                             ",
"                                        6 A ~ <.+.Z u &                                             ",
"                                          X 6 0 X , q                                               ",
"                                          & u +   & &                                               ",
"                                          7 q                                                       ",
"                                          + O                                                       "
};
