/* XPM */
static char *Walk_6_resized[] = {
/* columns rows colors chars-per-pixel */
"50 50 179 2 ",
"   c None",
".  c #060305",
"X  c #0F0609",
"o  c #0E090C",
"O  c #11060A",
"+  c #150A0D",
"@  c #190D0F",
"#  c #18110E",
"$  c #1C0C12",
"%  c #170D12",
"&  c #1E1118",
"*  c #220A0F",
"=  c #240D14",
"-  c #2B0C15",
";  c #290F19",
":  c #260E18",
">  c #310D17",
",  c #360E18",
"<  c #3B0D19",
"1  c #3A0C17",
"2  c #231315",
"3  c #2B1D15",
"4  c #26121B",
"5  c #2C121C",
"6  c #2B191A",
"7  c #291718",
"8  c #33121D",
"9  c #3B121D",
"0  c #321A1C",
"q  c #37221D",
"w  c #3A251C",
"e  c #291B22",
"r  c #341421",
"t  c #3B1624",
"y  c #341D21",
"u  c #3C1D23",
"i  c #312125",
"p  c #3D2223",
"a  c #342A29",
"s  c #372A32",
"d  c #3B3439",
"f  c #410F1B",
"g  c #44101D",
"h  c #4B101F",
"j  c #432B1D",
"k  c #492F1F",
"l  c #431625",
"z  c #4B1524",
"x  c #4C1826",
"c  c #541223",
"v  c #5C1425",
"b  c #551728",
"n  c #5B1729",
"m  c #621327",
"M  c #64162A",
"N  c #6B162B",
"B  c #6D182D",
"V  c #73172D",
"C  c #77182E",
"Z  c #422626",
"A  c #452924",
"S  c #442629",
"D  c #49272C",
"F  c #4C2A2B",
"G  c #52282B",
"H  c #43332A",
"J  c #4D3121",
"K  c #5C3B26",
"L  c #55332A",
"P  c #58352A",
"I  c #513422",
"U  c #4F2B30",
"Y  c #592F34",
"T  c #46393A",
"R  c #4A3937",
"E  c #5B3434",
"W  c #5C3239",
"Q  c #533D3B",
"!  c #593B35",
"~  c #623D2A",
"^  c #63373B",
"/  c #653A39",
"(  c #673A37",
")  c #58433D",
"_  c #66412A",
"`  c #6A432C",
"'  c #754A2E",
"]  c #6D4233",
"[  c #6D443E",
"{  c #714534",
"}  c #734831",
"|  c #794938",
" . c #7F5033",
".. c #343B55",
"X. c #4B3F43",
"o. c #403F43",
"O. c #6A3B40",
"+. c #35576E",
"@. c #4C4549",
"#. c #524241",
"$. c #5D4843",
"%. c #5D4D4B",
"&. c #584542",
"*. c #5E575B",
"=. c #6D4742",
"-. c #604C4A",
";. c #644947",
":. c #724340",
">. c #744943",
",. c #7C4D46",
"<. c #7B4649",
"1. c #65504D",
"2. c #6D5956",
"3. c #6E5C5B",
"4. c #665857",
"5. c #725D5A",
"6. c #6D605E",
"7. c #7F605B",
"8. c #6F5F62",
"9. c #546376",
"0. c #5D677A",
"q. c #6D6666",
"w. c #7B6B6B",
"e. c #776766",
"r. c #79777E",
"t. c #825233",
"y. c #8D573B",
"u. c #92593E",
"i. c #9C623D",
"p. c #844C4C",
"a. c #83564D",
"s. c #9A5E41",
"d. c #8D5351",
"f. c #915454",
"g. c #9F6241",
"h. c #886356",
"j. c #8C6859",
"k. c #A26442",
"l. c #B57146",
"z. c #826A66",
"x. c #9B7362",
"c. c #837878",
"v. c #837574",
"b. c #BA6F64",
"n. c #AC7163",
"m. c #A77B67",
"M. c #BD7C6C",
"N. c #C27A6C",
"B. c #AE846E",
"V. c #D58E7B",
"C. c #C3947B",
"Z. c #CB8A77",
"A. c #7F8187",
"S. c #6C8393",
"D. c #918989",
"F. c #9B9493",
"G. c #A89D9C",
"H. c #ACA4A2",
"J. c #BBB2B0",
"K. c #B4A9A7",
"L. c #D39F84",
"P. c #E29F87",
"I. c #D2A085",
"U. c #EBAA8E",
"Y. c #EEB295",
"T. c #FBB99B",
"R. c #F4B698",
"E. c #C6ACA1",
"W. c #FDC09F",
"Q. c #CBC0BB",
"!. c #FFC3A2",
"~. c #FFCEB2",
"^. c #FFD4BC",
"/. c #C5CAD4",
"(. c #D4CAC7",
"). c #E5DCD9",
"_. c #E2D8D6",
"`. c #D5E0E9",
"'. c #FFF7F1",
/* pixels */
"                                                                                                    ",
"                                                                                                    ",
"                            > , , -                                                                 ",
"                    $ = z c N C C M c c c < $ $                                                     ",
"              = , l N N V V V V V C C C V N N N f ,                                                 ",
"            < m C V V V V V V V V V V V V C V V m c h ,                                             ",
"        > c V V V V V V V V V V V V V C N n c z 8.a : -                                             ",
"        h C V V V B M V V V V V V V N n l 5 o.F.).q.5                                               ",
"        , V V N b l l B V V V V V V b r s D.G.e.(.J.e                                               ",
"          v N l t t t B V V V V V n r T G.K.3.R c._.*.                                              ",
"          - 8 t t t l B V V V V n t X.H.v.1.$.%.w.).q.                                              ",
"              5 t t n C V V V M t e q.2.%.Q Q z.5.J.w.                                              ",
"              $ t n V V V V N l 5 T 3.&.=.n.h.5.5.D.@.                                              ",
"              = b V V V V V n r $.z.;.=.j.$.) 5.6.c.                                                ",
"              c C V V V V V l a z.1.E Q T ) $.2.w.F.                                                ",
"            = m V V V V V M r #.e.! m.a.( b.j.4.w.3.                                                ",
"            < V V V V V V x r %.;.n.P.d.T a.x.1.%.                                                  ",
"          > N V V V V V V l i z.Q N.h.9.9.s L.a                                                     ",
"          f C V V V V V M t i 5.=.U.E.`.0...I.H                                                     ",
"          f V V V V V V n t y 4.>.T.~.'.S.+.I.H                                                     ",
"          f C V V V V B x t e 2.>.T.!.^.E.q.Y.B.                                                    ",
"          < C V V V V N l t y #.,.T.!.!.!.~.!.R.R                                                   ",
"          = m V V V V N l t ; Z Z.!.!.!.!.!.!.R.!                                                   ",
"          + m C V V N t t t r F M.T.!.!.!.!.!.C.                                                    ",
"            5 b V m ;.A.r t t r G n.Y.!.!.W.!.B.                                                    ",
"              $ t r X./.r.r r 8 ; 0 :.M.V.T.Y.=.                                                    ",
"                  % = *./.d 0 Z p : ; : P ,.:.                                                      ",
"                        ..e 2 0 u F 0 5 5 5 4                                                       ",
"                        O e ; m m * Z Z 6 ; 8 O                                                     ",
"                          $ 8 N N ; , G E - - X                                                     ",
"                          % & n C f l m G ^ *                                                       ",
"                            = 8 V m - N v E Z                                                       ",
"                            & 2 z N , f V v 7                                                       ",
"                            O % 8 8 F / 9 h 1 X                                                     ",
"          p ~ 3                 4 F p.d.E + X .                         3 ` K                       ",
"          7 A ~ j               = Z W <.p.Y S +                       w ` K w                       ",
"              w ` _ 3           1 , = S p u + X                   7 P ' J                           ",
"                # L y. .J A     - t 7 2 : r 4 A p 6         6 j } i._                               ",
"                    p } u.k. .t.t.t.s.P : t r 0 | { P L ] t.g.k.i.I                                 ",
"                      + 3 F } g.s.k.] 2 2 : 7 2 S ( s.l.l.t.} j #                                   ",
"                              6 6 6 i D ^ / :.+   7 6 j j                                           ",
"                                  $ U W <.f.p.$                                                     ",
"                                    D W O.d.p.6 @                                                   ",
"                                    D W ^ d.p.y $                                                   ",
"                                    D W ^ <.E 6                                                     ",
"                                    u Y u 6 y 2                                                     ",
"                                    : + 4 +                                                         ",
"                                  $ ; + t $                                                         ",
"                                    . + 5                                                           ",
"                                        +                                                           "
};
