/* XPM */
static char *Decor_Ruins_02_resized[] = {
/* columns rows colors chars-per-pixel */
"50 50 84 1 ",
"  c None",
". c #181A17",
"X c #1C1E1A",
"o c #1D2317",
"O c #1E201C",
"+ c #212917",
"@ c #20231E",
"# c #242C1B",
"$ c #253117",
"% c #273219",
"& c #2A341B",
"* c #2E3A1C",
"= c #313D1E",
"- c #232521",
"; c #262924",
": c #292C26",
"> c #2B2E28",
", c #2B3421",
"< c #2E3921",
"1 c #2E312B",
"2 c #323C23",
"3 c #31352E",
"4 c #353D2B",
"5 c #333730",
"6 c #353A32",
"7 c #393E36",
"8 c #3B3F38",
"9 c #33401F",
"0 c #354221",
"q c #384622",
"w c #3C4B24",
"e c #39432C",
"r c #3E4B2C",
"t c #3C4435",
"y c #3F4836",
"u c #3D433A",
"i c #405127",
"p c #43532A",
"a c #4A5D2D",
"s c #414C35",
"d c #41463D",
"f c #43493E",
"g c #465335",
"h c #49543B",
"j c #4C583F",
"k c #506430",
"l c #464C42",
"z c #494F44",
"x c #4B5246",
"c c #4D5449",
"v c #525D46",
"b c #50574B",
"n c #525A4D",
"m c #565D51",
"M c #585E53",
"N c #59634F",
"B c #5B6255",
"V c #5E6658",
"C c #5F6859",
"Z c #60675B",
"A c #636B5C",
"S c #65715B",
"D c #676E61",
"F c #677060",
"G c #6B7464",
"H c #6E7866",
"J c #6D7568",
"K c #6F7868",
"L c #727C6B",
"P c #77816F",
"I c #78816F",
"U c #7A8472",
"Y c #7E8975",
"T c #808B77",
"R c #838D7A",
"E c #86917D",
"W c #8B9582",
"Q c #8E9985",
"! c #909B86",
"~ c #96A38D",
"^ c #98A58E",
"/ c #9AA790",
"( c #9BA891",
") c #ABBAA0",
/* pixels */
"                                                  ",
"                                                  ",
"                                                  ",
"                                                  ",
"                                                  ",
"                                                  ",
"                                                  ",
"                                                  ",
"                                                  ",
"                                                  ",
"                                                  ",
"                                                  ",
"                                                  ",
"                                                  ",
"                                                  ",
"                         7ulxbmx                  ",
"                        bAFZnbbx3                 ",
"                        ZVb7cmMMu3                ",
"                       3AcuLQQQWBz6               ",
"                        xuGRTRRTAxB               ",
"                        :3ALUUUUGzFx&iq*          ",
"                         Odbbbnmn8zd32&=0=$       ",
"                         1u5zbd6453BILZs=9i$      ",
"                         -uLRERUKf7KEEETAtiw      ",
"                         XlURRYRUD7DLLLULl4*      ",
"                         XxHGLLLJB5dBMZBmuAd      ",
"              cAAu       6ucmAABl37755653dbc      ",
"            BYWQ!Rl  -@-1Bl67766mGUULD85BRUc:     ",
"            LQQQQRGcf5>>lyfxt7uUWEEEEWm5LRWG;     ",
"           3LWTJBbbxd>>8lfPUf5LRYRERERF6GREG:     ",
"           5DLblllzxu>:dumUN&lYYPUREERF5AURL:     ",
"           5BDcllll83:;lflBgwfLUTRTUUPV3BUUF;     ",
"           uFFcll7>111;lm2iaapgjNHLGSCl6uBBb;     ",
"           bHBld85>11>@-:ikawpaaphhtr*3lf63u6     ",
"          7FAzlu7>>>5;OXowa0==aaw99iqyPREUbuu     ",
"         6BAcu61>>>>;OOOo=&&<f000he&4LERREUu6     ",
"       3cMbzu11>::-@X.XX+#tBHTGVLRA1DRRIREUf3     ",
"      zZGcld533>11:OXXXXX#cGLUULLUc7HLIPYYPd3     ",
"    :BLLFzlllzl811:@OXX@X1t7nAZVBb87mbAFFGFu6     ",
"    6bZmzldllzzz11:@X.OX@7UZ333455uu3366tdu661    ",
"   >lllld8llllzz111:OXXXtuBD57bJUVltCIGBl65ul6.   ",
"   8llf7316dlzc811>:O.X3Az7-lE^((/WCBEEYL8lLIF1   ",
"  3dll5>:>3367531>:>@X;VFct:lBY!YSgrevPUL5uBDC7;  ",
"  udld31;:::>>>;---@OXxBcu16llMN,&9pppyFV>uU^Qz5  ",
" >lud71:uBZM>-OXXXO7u3zu1:>17mJBxve99qwe57lbR~Yu- ",
" 1d731:uLUR)RzOXXX;BYYPx>115uCLJGCCbGSr%:5llBIJzO ",
" 37111;dMMALLUM:XO7BKKKDz86dzBGFBCGKUEGy::6lmGABO ",
" 36>36zLUGDBmAZl-;lJKJDGAzllulzxcCGGGGFnu:1ucGGD6 ",
" 37ubALGVZHYVfllu>umVVVmcluu6166ulxccBnfu:17cGJJx ",
"-67713666667u1666;-;166663::;;-;;;1666653@;:7xccu "
};
