/* XPM */
static char *objects_house_0011_Layer_12_resized[] = {
/* columns rows colors chars-per-pixel */
"50 50 120 2 ",
"   c None",
".  c #14142E",
"X  c #151630",
"o  c #171831",
"O  c #1A1C34",
"+  c #1E2037",
"@  c #1F2038",
"#  c #222236",
"$  c #23253B",
"%  c #26293E",
"&  c #2C2C3C",
"*  c #2F303E",
"=  c #33333F",
"-  c #272A40",
";  c #2A2D41",
":  c #302F41",
">  c #2E3245",
",  c #323444",
"<  c #383743",
"1  c #373944",
"2  c #393944",
"3  c #323649",
"4  c #353A4B",
"5  c #393D4D",
"6  c #373A50",
"7  c #393D52",
"8  c #403F45",
"9  c #403F4C",
"0  c #3D414E",
"q  c #3D4352",
"w  c #3D4259",
"e  c #414046",
"r  c #494542",
"t  c #4E4845",
"y  c #43424E",
"u  c #504A47",
"i  c #504C4B",
"p  c #5F4D4A",
"a  c #414654",
"s  c #494655",
"d  c #434857",
"f  c #4B4956",
"g  c #42475A",
"h  c #454B5B",
"j  c #4B4C5C",
"k  c #514E51",
"l  c #524E5E",
"z  c #545051",
"x  c #5A5350",
"c  c #54505F",
"v  c #5C5558",
"b  c #645450",
"n  c #615956",
"m  c #655D5C",
"M  c #695E5C",
"N  c #6B615E",
"B  c #474C61",
"V  c #4A4F61",
"C  c #524F60",
"Z  c #4C5263",
"A  c #4E5469",
"S  c #545263",
"D  c #5B5665",
"F  c #5D5867",
"G  c #525769",
"H  c #5A5768",
"J  c #545A6D",
"K  c #5B5A6B",
"L  c #575D71",
"P  c #595E72",
"I  c #625C61",
"U  c #635D6D",
"Y  c #635F70",
"T  c #5B6175",
"R  c #5E657A",
"E  c #676164",
"W  c #6E6563",
"Q  c #66616F",
"!  c #6B676C",
"~  c #6F686A",
"^  c #706663",
"/  c #726866",
"(  c #756B6A",
")  c #796E6D",
"_  c #7A706F",
"`  c #646373",
"'  c #696571",
"]  c #676876",
"[  c #696872",
"{  c #60677C",
"}  c #6A6778",
"|  c #62697F",
" . c #6C6B7B",
".. c #776F70",
"X. c #7D7373",
"o. c #73727E",
"O. c #7B767D",
"+. c #807676",
"@. c #827778",
"#. c #847A7B",
"$. c #887D7F",
"%. c #656C82",
"&. c #696F83",
"*. c #677083",
"=. c #6A7186",
"-. c #6D758A",
";. c #6F788E",
":. c #71768B",
">. c #71798E",
",. c #7F7E8A",
"<. c #747D93",
"1. c #787E91",
"2. c #867E82",
"3. c #897F81",
"4. c #778096",
"5. c #788197",
"6. c #7A849A",
"7. c #7E889E",
"8. c #8B8084",
"9. c #818290",
/* pixels */
"    . . . . . .       o % % $ % @ % @ @ @ @ @ @ $ $ @ O @ @ @ $ % % % - - % o       X X . . . .     ",
"  ; 4 4 4 4 4 4 % X @ 0 q q h q h h h h h g h h h h g B h B B Z h h w w V w 0 @ o % 3 4 0 0 0 3 >   ",
"$ q q a q d d d q ; > V J T R *.*.*.-.-.%.} } &.:.;.;.;.-.;.;.;.;.-.%.R | R Z > % q Z Z w q q q q @ ",
"% 5 q q Z T | T Z > 4 T R -.7.4.;.;.;.| Y Y Y } >.1.1.<.4.5.6.6.6.6.5.4.5.-.L 0 3 h T L J Z q 0 0 ; ",
"> 7 q a J %.<.=.L 3 4 A R ;.;.%.| | P c S D I U ` -.=.%.%.%.%.%.-.4.4.4.5.4.L 0 3 h R | T J Z q q > ",
"> 0 a a J R >.<.R 3 0 G T R | | | | S c l S S S C T %.%.%.%.=.<.<.;.-.<.5.-.T q 3 h *.R T R T q 0 3 ",
"> 4 a h T S ` } R 4 0 B T R { | R T C c l l l l l K { | R { <.5.4.;.4.4.=.R G 0 3 h -.*.T T T w 0 3 ",
"3 0 q h j f D Q D > 4 d J J T T T T j f s f f f f G L S l S S P R T L T T J V 0 > h -.=.T R R h 0 3 ",
"> 4 q Z l l C U D , 5 a h J T L T P j f f f f f j G l f l f s s C A J T G J h 0 3 V -.-.R T T B 4 3 ",
"> 0 q B f l l U F ; 4 q 0 y f h A G j y s s y y C J f y 9 y 9 9 y c D G T h 0 4 > w *.4.R T L B 0 3 ",
"> 0 d J S j l U U & - 7 * = = = 5 0 5 5 , = = 5 a 5 , = = = = = = = < 2 4 * = # % q %.4.%.T R B 4 3 ",
"> 0 q J J S l U U & . ; * * = * 3 4 5 3 5 4 4 7 6 , & & & & & & & & & & * & # . 3 w %.<.%.R L B 0 3 ",
"; 4 0 S J R T  .-.3 . + $ # # & ; 3 3 3 3 4 4 4 5 = * & * & & & & & & & @ # % X > q *.;.%.R %.A 4 > ",
"; , = s f D { =.<.6 $ 5 s 5 4 0 5 4 4 > ; & & - - # # + + + # # # & * * = = 0 % * q *.*.R %.L A 0 > ",
"$ * = f j j H -.<.B 3 q a q h B Z A A f s y 9 s C j 9 9 9 s s s y f f f h 1 0 & $ 0 | *.%.R %.A 0 - ",
"+ * 1 f s f S =.1.B 3 g a j j f j K T j l l S l C ` Y D S D l v c c j f d r 0 & & 3 T ;.%.%.R L 6 % ",
"+ & 2 9 C C C K &.7 4 a a f f l c D H F U U U U Y :.:.Y Y Y U Y U S l l l f q * & 1 J -.%.%.R T 7 ; ",
"# : 2 C l 9 l D Y , 4 a q y s l U F F K H H H D U :.;.Y U Y &.Y H H U H H R B > # 1 J -.R %.%.T q - ",
"# 3 9 C 9 C l I Y = 3 a 5 f l l H D H ` Y U P Y %.&.-.;.:.>.>.:.-.<.;.%.R T Z 4 & 0 J ;.%.R %.R 7 % ",
"@ 4 g J D C C H U * 3 a s f s l c S K %.K K %.%.=.>.;.=.-.>.>.1.4.5.7.-.T T G 4 > q J ;.%.%.R J q @ ",
"@ 3 h P G C C D U * 4 a g j l l l S ` R C l P %.%.%.P %.%.%.%.%.%.;.6.-.%.R A 4 > q A 4.R R T T 7 @ ",
"@ 3 g P { H C D Y : 4 a V P G C S K | R S S R R %.H C H %.%.%.Y %.%.7.<.%.R T 0 , q Z 4.*.| T J 7 % ",
"O 3 h ` P P P Y =.3 4 a B L J P | | | | ` R %.%.%.C C C J %.%.%.%.%.6.<.R %.T 0 > q Z 4.| R %.T q @ ",
"@ 3 g L { %.%.=.<.3 5 a B P %.%.%.| | | %.%.R %.%.G C C L %.%.%.%.%.4.<.%.R T q > q Z ;.*.R T J 7 % ",
"@ 4 a T | R %.*.;.6 6 g B P R %.%.%.%.%.%.%.%.%.%.%.A K %.%.%.%.%.R <.4.%.%.R w > q Z -.%.%.%.L 6 @ ",
"@ 3 g J T %.%.%.;.6 6 9 V P R %.%.%.%.%.%.%.A %.P %.%.%.%.%.%.L %.R <.<.%.%.%.w ; q h -.%.T L A 7 % ",
"$ 4 a L %.R %.%.<.6 9 9 V R %.%.C %.%.A w H %.%.%.%.%.%.%.%.%.%.%.%.4.5.R %.T g ; q B -.%.R %.L 4 - ",
"@ 4 q P R %.%.%.<.6 6 w V P P R B l %.S l H %.A %.%.P %.%.L %.%.R %.4.5.R L T w > q w %.%.%.T A q @ ",
"% 4 q A T %.R %.<.6 6 w w A %.%.%.K %.H w %.%.%.%.%.%.%.%.%.%.%.R %.5.5.R R R q ; q q *.-.%.R L 7 % ",
"$ 4 a G %.%.%.%.<.w 6 9 A P %.%.%.%.%.%.%.%.%.%.%.%.%.%.%.L %.%.%.*.6.5.R T R q @ 1 0 *.=.%.L A 4 % ",
"% 4 q G R { %.%.<.6 6 w B %.%.%.%.P %.%.%.%.%.%.A %.A %.%.%.%.A %.*.7.4.R *.R q # = 0 | -.R R L 0 % ",
"$ 3 q j m E ` %.>.9 3 w w %.%.%.%.%.%.%.%.A %.%.%.%.%.%.%.%.%.%.R =.7.4.%.T P q # 0 q *.-.%.R Z 4 % ",
"% 3 q k ^ ^ ! | 4.q 4 q h T *.*.| | ] ! [ | | | | | ] ] | R | | | -.7.4.R P %.q ; a a *.-.T T J 0 - ",
"% 4 q k N ^ [ *.<.q 4 a B R *.-.| ! / / N ] | | ] ! ^ / [ R | | | 4.7.4.{ { L 3 ; q a *.-.| R A 4 ; ",
"% 4 q h I [ | | <.w 3 q f T *.;.[ N / N / [ | ] / ^ ^ N / ] | | R ;.6.5.%.L l : $ 2 a *.-.R | A q % ",
"& 4 q h R R  .( 8.w 3 0 i W E [ ! / N / N / | [ ^ ^ ^ / ^ ] %.| | ;.5.5.R S f : $ = 2 *.-.%.%.A 4 ; ",
"$ 3 q d J R | ( 8.h , r t N N ^ X./ / W / / ] ! N / ^ ^ ^ ] | | *.*.4.4.R S f & % = 1 %.-.R R A 4 ; ",
"% 3 q h T R R  .5.Z * r t N ) $.8.( / / N ^ ^ ^ ^ ^ ^ ^ / ! [ R %.R 5.4.T j f & & = 1 | -.R R A 4 ; ",
"% 3 q d R R *.%.6.Z = r t N ( 8.#.X.X./ ^ ^ / / ^ ^ ^ ^ N / N ] %.*.>.] S l f & & = 0 %.=.%.R B 4 > ",
"% 3 q h T R %.*.6.h > e t n W ) #.#.X.X._ ^ N / ^ ^ ^ ^ / N n N R %.} Q f j j & * 2 q %.=.L P B 4 ; ",
"$ 0 q Z L | | *.<.g > q f N v E X.3.3.8.X.( N / / ^ ^ W ^ N p v { { [ U j f h > 3 q d -.*.R T h 4 > ",
"% 0 q q R { | | <.a 3 a d T |  .$.3.#.X.X.X.#.#._ ^ / ( ) ) M U T S ' F f j h 3 1 a a ;.-.| R B 4 ; ",
"% 0 q Z { T { 4.;.w 3 q w T R [ ( X.#.#.$.#.X.X.#.#.2.8.8.2.=.T S F ! H f C V 3 4 1 0 :.-.R T h 5 ; ",
"$ 0 q q L J | 4.%.q ; a h T T [ ^ ( #.#.#.$.$.#.X.X.X.) ) &.=.` Y U S J L J V 3 > = 2 *.*.T T h 4 ; ",
"% 0 q w J L R T L 0 @ q q L R R m N ~ ) X.X.( ) X.@.#.3.4.4.4.o.I D P R R R q @ 1 = 0 -.-.R T w q > ",
"> 0 q w R R L { A 0 + 0 q h Z T ! N N N ( X.#.#.#.O.o. .%.%.{ { P P P R R G 0 + 0 q d ;.4.R T h q > ",
"; q q Z L J R T w q o % q d q Z K N x N N ^ ^ ^ E T | | R T R R | R R L A q % o 0 q h *.;.R R q 0 ; ",
"% q q q q q Z q q q o . 0 q q q a h v N N v x z c J J J J J J G A A A B q 4   o q q q V A J Z q q % ",
"  * 0 3 0 0 0 0 0 -       ; > 4 4 4 0 0 e 0 2 y q q 0 q q 0 q 4 5 4 4 , ;       ; 5 q 5 4 4 3 > ;   ",
"          o o O +               X o o O O O O + + + + O O o O o . .               O O O O           "
};
